DBRep_DrawableShape

CASCADE Topology V3, (c) Open Cascade
Locations 1
1
              1               0               0 -130.000003814697 
              0               1               0            -130 
              0               0               1           -9.75 
Curve2ds 300
1 -1.0736706808367416 10.995024784387596 0.067565335195784684 -0.99771485178876695 
8 0 22.200733492306913
1 -0.37813385526604293 12.579976198052634 0.067565335195784684 -0.99771485178876695 
1 0.42632931916325845 -11.154976741491311 0 1 
8 0 19.299995422363281
1 0.2564723444115895 9.4064700555932177 -0 -1 
1 0.42632931916325845 8.1450186808719707 -0.46574565176184951 0.88491863347142263 
8 0 3.220641984151035
1 0.63640404550585572 -1.4652690091467662 -0.46574565176184951 0.88491863347142263 
1 0.63640404550585572 -1.4652690091467662 0 1 
8 0 1
1 0.35355339059327129 0.35355339059327662 -0 -1 
1 0.63640404550585572 -0.46526900914676617 -0.6298007047585007 0.77675676520111225 
8 0 2.3817058137068621
1 0.6959091628633729 -0.9474082100999226 -0.6298007047585007 0.77675676520111225 
1 -7.2635423180156522 0.088543080955105324 0 -1 
8 0 0.350006103515625
1 0.6959091628633729 -0.5974021065842976 -0 -1 
1 0.6959091628633729 -0.5974021065842976 -0.70710678118654757 0.70710678118654757 
8 0 2.1213203435596424
1 -6.4619962569409211 -0.41682396615215112 -0.70710678118654757 0.70710678118654757 
1 -7.2635423180156522 -0.26146302256051968 0.99971666404300275 0.023803185390407829 
8 0 14.704170797941606
1 -7.4364622596210399 -0.088543080955133802 0.99971666404300275 0.023803185390407829 
1 7.4364622596210666 0.088543080955105324 -1 0 
8 0 14.700004577636719
1 8.2380083206957977 -0.41682396615215112 -1 -0 
1 0.37052101791128167 -7.0134165255430787 0 1 
8 0 14.700004577636719
1 7.2635423180156806 -0.088543080955133746 -1 -0 
1 7.2635423180156806 -0.088543080955133746 0 1 
8 0 0.350006103515625
1 -0.69590916286338711 -0.9474082100999226 -0 1 
1 -0.37287476482840987 -7.2271275239899637 1 0 
8 0 0.5
1 -0.37338110022084336 9.526616610960815 1 -0 
1 0.12712523517159013 -7.2271275239899637 0 1 
8 0 14.700004577636719
1 0.37052101791126157 7.68658805209364 -0 -1 
1 0.12712523517159013 7.472877053646755 -0.033993936323246876 -0.99942203912724037 
8 0 14.708505518323079
1 0.37287476482840987 7.2271275239899353 -0.033993936323246876 -0.99942203912724037 
1 0.12661889977915841 9.526616610960815 -1 0 
8 0 0.5
1 -0.12712523517159013 7.2271275239899353 1 -0 
1 7.0279675403433259 0.35296448858551344 -1 0 
8 0 14.700004577636719
1 -0.12712523517159013 -7.4728770536467835 -0 1 
1 7.0279675403433259 -0.99703398553558031 0 1 
8 0 1.3499984741210938
1 3.0709193924949645 0.9790798445655895 -0 -1 
1 -7.6720370372933928 0.35296448858551344 0.99580950752706521 -0.091451761703664869 
8 0 14.761864057857657
1 -7.0279675403433259 0.99703398553559452 0.99580950752706521 -0.091451761703664869 
1 -3.0709193924949645 0.9790798445655895 0 -1 
8 0 1.3499984741210938
1 -7.0279675403433259 -0.35296448858549923 -0 1 
1 2.0564189415233773 -8.668583347294998 0 1 
8 0 14.700004577636719
1 7.6720370372933928 -0.35296448858549923 -1 -0 
1 -0.12712523517159013 -7.2271275239899637 1 0 
8 0 0.5
1 0.37338110022084159 -9.5266166109607866 -1 -0 
1 0.37287476482840987 -7.2271275239899637 -0.033993936323246876 0.99942203912724037 
8 0 14.708505518323079
1 0.12712523517159013 -7.4728770536467835 -0.033993936323246876 0.99942203912724037 
1 -0.12712523517159013 7.472877053646755 0 -1 
8 0 14.700004577636719
1 -0.37052101791132186 -7.6865880520935832 -0 1 
1 -7.6720387702111736 -0.35296657036502666 1 0 
8 0 14.700004577636719
1 0.12712523517159013 7.2271275239899353 -0 -1 
1 -0.12661889977915664 -9.5266166109607866 1 0 
8 0 0.5
1 -0.37287476482840987 7.2271275239899353 1 -0 
1 7.0279658074255451 -0.35296657036502666 0 1 
8 0 1.350006103515625
1 3.070917859208782 0.97908519254903581 -0 -1 
1 7.0279658074255451 0.99703953315059834 -0.99580946045985985 -0.091452274212525428 
8 0 14.761864755581184
1 7.672038770211147 0.35296657036502688 -0.99580946045985985 -0.091452274212525428 
1 -2.0564189415233773 8.6685833472949696 0 -1 
8 0 14.700004577636719
1 -7.0279658074255735 0.35296657036502666 1 -0 
1 -3.070917859208782 0.97908519254903581 0 -1 
8 0 1.350006103515625
1 -7.0279658074255735 -0.99703953315059834 -0 1 
1 -0.39408310089557208 -6.9940853897139448 1 0 
8 0 1.5
1 -0.63070983395831171 7.841797853513782 1 -0 
1 1.1059168991044279 -6.9940853897139448 -0.10151365672740999 0.99483414572371287 
8 0 14.776336981219009
1 0.39408310089557297 -7.7059191879228024 -0.10151365672740999 0.99483414572371287 
1 -0.39408310089557208 7.705919187922774 0 -1 
8 0 14.700004577636719
1 -7.0279675403433259 0.35296448858551344 1 -0 
1 0.39408310089557297 -7.7059191879228024 0 1 
8 0 14.700004577636719
1 -7.0279675403433259 0.35296448858551344 1 -0 
1 0.63070983395831259 7.841797853513782 -1 0 
8 0 1.5
1 -1.105916899104427 6.9940853897139164 1 -0 
1 -0.37287476482841075 -7.2271275239899637 1 0 
8 0 0.5
1 0.37309495495732303 -8.076905807982115 -1 -0 
1 0.12712523517158925 -7.2271275239899637 0 1 
8 0 14.700004577636719
1 8.26199174700713 -1.2130105418112294 -1 -0 
1 0.12712523517158925 7.472877053646755 -0.033993936323246876 -0.99942203912724037 
8 0 14.708505518323079
1 0.37287476482840898 7.2271275239899353 -0.033993936323246876 -0.99942203912724037 
1 -0.37309495495732303 -8.076905807982115 1 0 
8 0 0.5
1 -0.12712523517159102 7.2271275239899353 1 -0 
1 -0.12712523517159102 7.2271275239899353 0 -1 
8 0 14.700004577636719
1 -0.37052101791127096 -7.68658805209364 -0 1 
1 0.13070983395831259 -8.5582036723651242 0.030473642613033078 0.9995355707056619 
8 0 16.407621706049614
1 -0.37309495495732303 -8.076905807982115 0.030473642613033078 0.9995355707056619 
1 -0.86929016604168741 7.841797853513782 0.060862564808796399 -0.99814615573316479 
8 0 16.430461041882861
1 1.6146294267252363 6.8604374622205739 0.060862564808796399 -0.99814615573316479 
1 -3.0709193924949645 -0.37091862955550425 1 0 
8 0 6.75
1 -5.1353705732747637 6.8604374622205739 1 -0 
1 -5.1353705732747637 6.8604374622205739 0.42725668888716395 -0.90413036770212363 
8 0 18.138978748783803
1 -2.2390058421538122 10.558957190596857 0.42725668888716395 -0.90413036770212363 
1 3.0709193924949627 -0.97907984456557529 0 1 
8 0 1.3499984741210938
1 7.0279675403433259 0.99703398553559452 -0 -1 
1 3.0709193924949627 0.37091862955551846 -1 0 
8 0 6.75
1 -4.6935810584766227 6.0314212303417207 1 -0 
1 -3.6790806075050373 0.37091862955551846 0.98058071831902904 -0.19611592199751929 
8 0 6.8836760441009481
1 -3.0709193924949645 0.9790798445655895 0.98058071831902904 -0.19611592199751929 
1 0.12661889977915841 -9.7733788114024662 0 1 
8 0 19.299995422363281
1 -2.2390058421538122 -8.7410382317664244 -0 1 
1 -2.2390058421538122 -8.7410382317664244 0.93657750472544743 0.35046052223075658 
8 0 8.2748090370501384
1 -3.950851215479859 -1.3205069192532624 0.93657750472544743 0.35046052223075658 
1 -0.37338110022084159 9.526616610960815 0.025898052494612408 -0.99966458918828693 
8 0 19.306471021479911
1 -0.12661889977915664 9.7733788114024946 0.025898052494612408 -0.99966458918828693 
1 0.2564723444115895 -9.8935253667700636 0 1 
8 0 19.299995422363281
1 -0.12661889977915664 -9.5266166109607866 -0 1 
1 0.64644660940672871 -0.35355339059327662 -0.70710678118654757 0.70710678118654757 
8 0 1.4142135623730951
1 0.37052101791126146 -7.0134165255430787 -1 -0 
1 -0.35355339059327129 0.64644660940672338 0 -1 
8 0 1
1 -0.63640382738293511 0.4652654007526138 -0 1 
1 -0.35355339059327129 -0.35355339059327662 1 0 
8 0 1
1 -0.7435276555884105 9.4064700555932177 1 -0 
1 0.7435276555884105 -9.4064700555932461 -0.05174407331660702 0.99866037814494557 
8 0 19.325884800009639
1 0.2564723444115895 -9.8935253667700636 -0.05174407331660702 0.99866037814494557 
1 -0.2564723444115895 9.8935253667700351 0 -1 
8 0 19.299995422363281
1 -0.42632931916330108 -11.154976741491311 -0 1 
1 -0.2564723444115895 -9.4064700555932461 1 0 
8 0 1
1 -0.35355339059327306 0.35355339059327662 1 -0 
1 -0.35355339059327306 0.35355339059327662 0 -1 
8 0 1
1 -0.63640404550585572 -1.4652690091467662 -0 1 
1 -0.35355339059327306 -0.64644660940672338 0.70710678118654757 0.70710678118654757 
8 0 1.4142135623730951
1 0.37052101791128167 -7.0134165255430787 -1 -0 
1 2.7991487845201419 0.57948697723111309 0.70710678118654757 0.70710678118654757 
8 0 1.4142135623730951
1 0.37052101791127168 -7.0134165255430787 -1 -0 
1 -3.9508512154798581 -1.3205069192532619 0.96259307003938888 0.27095125301822154 
8 0 7.0123089497452886
1 -4.0147269708765858 -0.16965480059081983 0.96259307003938888 0.27095125301822154 
1 0.12690504504267697 -8.076905807982115 0 1 
8 0 16.400001525878906
1 0.43404006411554974 9.7030709109972406 -0 -1 
1 2.7352730291234142 -1.5196609041064448 0 1 
8 0 3.25
1 6.6262479028147823 0.90124561399645131 -0 -1 
1 3.679082140791218 -0.37092091096658919 -0.9805805051780585 0.19611698770056502 
8 0 6.8836775403507566
1 2.7352730291234142 -1.5196609041064448 -0.9805805051780585 0.19611698770056502 
1 -3.070917859208782 -0.37092091096658919 1 0 
8 0 6.75
1 -4.6935810584766227 6.0314212303417207 1 -0 
1 -0.37052101791127096 -7.68658805209364 0.095762833451018922 0.99540417907975076 
8 0 14.767875086908763
1 -1.0436925444618244 -7.0134165255430805 0.095762833451018922 0.99540417907975076 
1 1.0436925444618235 7.0134165255430787 -1 -0 
8 0 1.4142135623730951
1 -2.7991487845201402 0.57948697723111287 -0.70710678118654757 0.70710678118654757 
1 0.37052101791127096 -7.0134165255430787 0 1 
8 0 14.700004577636719
1 8.0737566748219365 -0.90124561399642289 -1 -0 
1 0.43404006411554974 9.7030709109972406 -0.077686584199763806 -0.99697783056363554 
8 0 19.308353114649627
1 1.1231284973313791 6.7164802381618642 -0.077686584199763806 -0.99697783056363554 
1 0.59869907235480468 1.4876701332908198 -0.46574662810066819 -0.88491811960929923 
8 0 3.2206352327596126
1 0.43404006411554996 -6.6969306148816656 -0.46574662810066819 -0.88491811960929923 
1 -6.4619962569408926 0.41682396615215112 -0.70710678118654757 -0.70710678118654757 
8 0 2.1213203435596424
1 0.59869907235480468 0.13767165916972601 -0.70710678118654757 -0.70710678118654757 
1 -7.9619962569408926 -1.0831760338478489 0.99574067644770892 0.092198184729738744 
8 0 16.269300793686575
1 -8.9880083206958545 -0.38217585812724053 0.99574067644770892 0.092198184729738744 
1 8.2380083206958261 0.41682396615215112 -1 0 
8 0 14.700004577636719
1 7.0279675403433259 -0.35296448858549923 -1 -0 
1 -8.9880083206958545 -0.38217585812724053 1 0 
8 0 17.700004577636719
1 3.0644332750011269 10.660569013817224 -0 -1 
1 -0.59869907235476205 0.13767165916972601 0.70710678118654757 -0.70710678118654757 
8 0 2.1213203435596424
1 7.2119962569408642 1.1178241418727595 0.70710678118654757 -0.70710678118654757 
1 0.90130092764523795 -1.362328340830274 -0.46574662810066819 0.88491811960929923 
8 0 3.2206352327596126
1 1.0659599358844221 -9.5469290890027594 -0.46574662810066819 0.88491811960929923 
1 -0.59869907235476205 1.4876701332908198 0 -1 
8 0 1.3499984741210938
1 7.0279675403433259 0.99703398553559452 -0 -1 
1 0.59869907235480468 0.13767165916972601 0 1 
8 0 1.3499984741210938
1 -7.0279675403433259 -0.99703398553558031 -0 1 
1 1.0659599358844218 -9.5469290890027594 -0.077686584199763806 0.99697783056363554 
8 0 19.308353114649627
1 0.37687150266860669 -12.533519761838193 -0.077686584199763806 0.99697783056363554 
1 -0.43404006411557816 9.7030709109972406 0 -1 
8 0 16.400001525878906
1 -0.12690504504267697 -8.076905807982115 -0 1 
1 -0.37687150266862091 12.466480238161864 0 -1 
8 0 25
1 -2.8959950808657533 -14.47900491913424 -0 1 
1 -1.0088569161642909 2.7677779546106933 0.25242189714700281 -0.96761727239684392 
8 0 5.9424321620023566
1 -0.37687150266862135 12.466480238161864 0.25242189714700281 -0.96761727239684392 
1 0.49114308383570915 1.2677779546106933 -0.70710678118654757 0.70710678118654757 
8 0 2.1213203435596424
1 -7.2119962569409495 -1.1178241418727168 -0.70710678118654757 0.70710678118654757 
1 0.49114308383570915 -2.9822220453893067 0 1 
8 0 4.25
1 -6.4380128306295887 -1.2130105418112294 -0 1 
1 8.9880083206957693 0.38217585812728316 -1 0 
8 0 17.700004577636719
1 -3.0644332750011269 -10.660569013817224 -0 1 
1 7.9619962569408926 1.0831760338478489 -0.99574067644770892 -0.092198184729738744 
8 0 16.269300793686575
1 8.9880083206957693 0.38217585812728316 -0.99574067644770892 -0.092198184729738744 
1 -0.49114308383572336 -2.9822220453893351 0.25242189714700281 0.96761727239684392 
8 0 5.9424321620023566
1 -1.1231284973313937 6.7164802381618074 0.25242189714700281 0.96761727239684392 
1 1.0088569161642766 2.7677779546106649 -0.70710678118654757 -0.70710678118654757 
8 0 2.1213203435596424
1 7.9619962569408926 1.0831760338478489 -0.70710678118654757 -0.70710678118654757 
1 -0.49114308383572336 1.2677779546106649 0 -1 
8 0 4.25
1 6.4380128306295603 1.2130105418112009 -0 -1 
1 -8.2380083206958261 -0.41682396615215112 1 0 
8 0 14.700004577636719
1 -8.2619917470071584 1.2130105418112009 1 -0 
1 0.37687150266860669 -12.533519761838193 0 1 
8 0 25
1 2.8959950808657533 14.47900491913424 -0 -1 
1 -6.6262479028147823 2.3487543860035771 0 -1 
8 0 3.25
1 -2.7352730291234142 -1.5196609041064448 -0 1 
1 8.0737566748219365 -0.90124561399642289 -0.97642093910855199 0.21587531046966299 
8 0 15.054987033622464
1 6.6262479028147823 -2.3487543860035487 -0.97642093910855199 0.21587531046966299 
1 6.6262479028147823 0.90124561399645131 -1 0 
8 0 14.700004577636719
1 2.0564189415233773 6.0314212303417207 -0 -1 
1 -4.6935810584766227 6.0314212303417207 0.41729311265824642 -0.90877195056185145 
8 0 16.175680343730228
1 -2.0564189415233773 8.6685833472949696 0.41729311265824642 -0.90877195056185145 
1 -2.0564189415233773 -6.0314212303417492 1 0 
8 0 6.75
1 3.070917859208782 -0.37092091096658919 -1 -0 
1 -7.0279675403433259 0.35296448858551344 0 -1 
8 0 1.3499984741210938
1 -3.0709193924949627 -0.97907984456557529 -0 1 
1 -7.0279675403433259 -0.99703398553558031 0.99580950752706521 0.091451761703664869 
8 0 14.761864057857657
1 -7.6720370372933928 -0.35296448858549923 0.99580950752706521 0.091451761703664869 
1 -7.6720370372933928 -0.35296448858549923 1 0 
8 0 14.700004577636719
1 -2.0564189415233773 -6.0314212303417492 -0 1 
1 -2.0564189415233773 -6.0314212303417492 1 0 
8 0 6.75
1 -3.0709193924949627 0.37091862955551846 1 -0 
1 4.6935810584766227 -6.0314212303417492 -0.41729311265824642 0.90877195056185145 
8 0 16.175680343730228
1 2.0564189415233773 -8.668583347294998 -0.41729311265824642 0.90877195056185145 
1 -0.37052101791132186 -7.6865880520935832 0.095762833451018922 0.99540417907975076 
8 0 14.767875086908763
1 -1.0436925444618137 -7.0134165255430805 0.095762833451018922 0.99540417907975076 
1 1.0436925444617733 7.0134165255431355 -1 -0 
8 0 1.4142135623730951
1 0.35355339059327151 -0.6464466094067236 -0.70710678118654757 0.70710678118654757 
1 -0.37052101791129671 -7.68658805209364 0.095762833451018922 0.99540417907975076 
8 0 14.767875086908763
1 -1.0436925444618339 -7.0134165255430805 0.095762833451018922 0.99540417907975076 
1 1.0436925444617984 7.0134165255430787 -1 0 
8 0 1.4142135623730951
1 -0.64644660940672716 -0.35355339059324842 0.70710678118654757 0.70710678118654757 
1 -0.37052101791129671 7.0134165255430787 0 -1 
8 0 14.700004577636719
1 -7.4364603976729029 0.088541128206017561 1 -0 
1 0.804089809155073 -0.90259450452234091 -0.62980227183742243 0.77675549459815318 
8 0 2.3816998875278923
1 0.86359617261706489 -1.3847330733684799 -0.62980227183742243 0.77675549459815318 
1 0.86359617261706489 -1.3847330733684799 -0.46574662810066819 0.88491811960929923 
8 0 3.2206352327596126
1 0.37813385526604315 -12.420023801947366 -0.46574662810066819 0.88491811960929923 
1 0.69591019084489858 0.94740396959875284 -0.62980227183742243 -0.77675549459815318 
8 0 2.3816998875278923
1 0.63640382738292089 0.46526540075262801 -0.62980227183742243 -0.77675549459815318 
1 -0.80408980915510142 -0.90259450452234091 0.70710678118654757 0.70710678118654757 
8 0 2.1213203435596424
1 -7.9619962569409495 -1.0831760338478489 0.70710678118654757 0.70710678118654757 
1 0.69591019084489858 0.59740549547765909 0 1 
8 0 0.34999847412109375
1 -7.2635441799638158 -0.08854112820600335 -0 1 
1 0.63640382738292089 1.465265400752628 -0.46574662810066819 -0.88491811960929923 
8 0 3.2206352327596126
1 1.1218661447339573 -9.5700253278262721 -0.46574662810066819 -0.88491811960929923 
1 0.63640382738292089 0.46526540075262801 0 1 
8 0 1
1 0.35355339059327306 0.6464466094067518 -0 -1 
1 8.2380083206957693 0.41682396615215112 -1 0 
8 0 14.700004577636719
1 7.4364603976729029 -0.08854112820600335 -1 -0 
1 7.2119962569409211 1.1178241418727595 -0.99574067644770892 -0.092198184729738744 
8 0 16.269300793686575
1 8.2380083206957693 0.41682396615215112 -0.99574067644770892 -0.092198184729738744 
1 -8.9880083206957977 -0.38217585812724053 1 0 
8 0 17.700004577636719
1 -3.0644332750011287 -10.660569013817224 -0 1 
1 8.7119962569409211 -0.38217585812724053 -0.70710678118654757 0.70710678118654757 
8 0 2.1213203435596424
1 0.804089809155073 -0.90259450452234091 -0.70710678118654757 0.70710678118654757 
1 -0.695910190844927 0.94740396959875284 0 -1 
8 0 0.34999847412109375
1 7.2635441799638158 0.088541128206017561 -0 -1 
1 -0.37813385526604293 12.579976198052634 0 -1 
8 0 25
1 -2.8959950808657524 -14.47900491913424 -0 1 
1 8.2380083206957977 -0.41682396615215112 -0.99574067644770892 0.092198184729738744 
8 0 16.269300793686575
1 7.2119962569409211 -1.1178241418727168 -0.99574067644770892 0.092198184729738744 
1 0.80409083713661289 0.9025978934157024 -0.70710678118654757 -0.70710678118654757 
8 0 2.1213203435596424
1 8.7119962569409211 0.38217585812728316 -0.70710678118654757 -0.70710678118654757 
1 -0.69590916286338711 -0.9474082100999226 0.6298007047585007 0.77675676520111225 
8 0 2.3817058137068621
1 -0.63640404550585572 -0.46526900914676617 0.6298007047585007 0.77675676520111225 
1 -0.63640404550585572 -1.4652690091467662 0.46574565176184951 0.88491863347142263 
8 0 3.220641984151035
1 -0.42632931916330108 8.1450186808719707 0.46574565176184951 0.88491863347142263 
1 -0.42632931916330108 -11.154976741491311 0.067565335195784684 0.99771485178876695 
8 0 22.200733492306913
1 -1.1218661447339571 -9.5700253278262721 0.067565335195784684 0.99771485178876695 
1 0.37813385526604293 -12.420023801947366 0 1 
8 0 25
1 2.8959950808657524 14.47900491913424 -0 -1 
1 8.7119962569409211 0.38217585812728316 -1 0 
8 0 17.700004577636719
1 3.0644332750011287 10.660569013817252 -0 -1 
1 7.4364603976729029 -0.08854112820600335 -0.99971667638987116 0.023802666825163573 
8 0 14.704170616339692
1 7.2635441799638176 -0.26145734591507624 -0.99971667638987116 0.023802666825163573 
1 0.35355339059327129 0.35355339059327662 -1 0 
8 0 1
1 0.7435276555884105 -9.4064700555932461 -1 -0 
1 3.070917859208782 0.97908519254903581 -0.9805805051780585 -0.19611698770056502 
8 0 6.8836775403507566
1 4.0147269708765858 -0.16965480059081983 -0.9805805051780585 -0.19611698770056502 
1 4.0147269708765858 -0.16965480059081983 -0.96259307003938888 0.27095125301822154 
8 0 7.0123089497452886
1 3.9508512154798598 -1.3205069192532619 -0.96259307003938888 0.27095125301822154 
1 3.9508512154798598 -1.3205069192532619 -0.93657750472544743 0.35046052223075658 
8 0 8.2748090370501384
1 2.2390058421538166 -8.7410382317664244 -0.93657750472544743 0.35046052223075658 
1 -0.7435276555884105 9.4064700555932177 0.05174407331660702 -0.99866037814494557 
8 0 19.325884800009639
1 -0.2564723444115895 9.8935253667700351 0.05174407331660702 -0.99866037814494557 
1 0.2564723444115895 9.4064700555932177 -1 0 
8 0 1
1 0.35355339059327306 -0.3535533905932482 -1 -0 
1 -0.2564723444115895 9.8935253667700351 0 -1 
8 0 19.299995422363281
1 0.12661889977915664 9.526616610960815 -0 -1 
1 -0.12661889977915841 9.7733788114024946 0 -1 
8 0 19.299995422363281
1 2.2390058421538157 10.558957190596857 -0 -1 
1 0.37338110022084159 -9.5266166109607866 -0.025898052494612408 0.99966458918828693 
8 0 19.306471021479911
1 0.12661889977915664 -9.7733788114024662 -0.025898052494612408 0.99966458918828693 
1 2.2390058421538157 10.558957190596857 -0.42725668888716395 -0.90413036770212363 
8 0 18.138978748783803
1 5.1353705732747654 6.8604374622205739 -0.42725668888716395 -0.90413036770212363 
1 -3.6790806075050355 -0.37091862955550425 1 0 
8 0 6.75
1 -1.6146294267252346 6.8604374622205739 1 -0 
1 3.0709193924949645 0.9790798445655895 -0.98058071831902904 -0.19611592199751929 
8 0 6.8836760441009481
1 3.6790806075050373 0.37091862955551846 -0.98058071831902904 -0.19611592199751929 
1 -1.6146294267252346 6.8604374622205739 -0.060862564808796399 -0.99814615573316479 
8 0 16.430461041882861
1 0.86929016604168829 7.841797853513782 -0.060862564808796399 -0.99814615573316479 
1 0.37309495495732303 -8.076905807982115 -0.030473642613033078 0.9995355707056619 
8 0 16.407621706049614
1 -0.13070983395831171 -8.5582036723651242 -0.030473642613033078 0.9995355707056619 
1 -8.2619917470071584 1.2130105418112009 0.96065610193968176 -0.27774062325496413 
8 0 15.302046744881565
1 -6.4380128306295905 3.0369894581887715 0.96065610193968176 -0.27774062325496413 
1 -2.8959950808657533 -14.47900491913424 0.36334527649164394 0.9316545551067793 
8 0 26.83398032346301
1 -6.8540049191342476 -10.52099508086576 0.36334527649164394 0.9316545551067793 
1 6.8540049191342467 10.52099508086576 -1 0 
8 0 9.75
1 -3.0644332750011287 7.0394355638194952 1 -0 
1 -6.8540049191342476 -10.52099508086576 1 0 
8 0 9.75
1 -3.0644332750011269 7.0394355638194952 1 -0 
1 -3.0644332750011269 -10.660569013817224 0.48248844851088163 0.87590233305635312 
8 0 20.207737677641227
1 -6.6855667249988731 -7.0394355638194703 0.48248844851088163 0.87590233305635312 
1 -6.6855667249988713 -7.0394355638194668 1 0 
8 0 9.75
1 2.8959950808657533 -10.52099508086576 -1 -0 
1 2.8959950808657533 14.47900491913424 -0.36334527649164394 -0.9316545551067793 
8 0 26.83398032346301
1 6.8540049191342476 10.52099508086576 -0.36334527649164394 -0.9316545551067793 
1 6.8540049191342476 10.52099508086576 -1 0 
8 0 9.75
1 3.0644332750011269 -7.0394355638194952 -1 -0 
1 3.0644332750011269 10.660569013817224 -0.48248844851088163 -0.87590233305635312 
8 0 20.207737677641227
1 6.6855667249988731 7.0394355638194988 -0.48248844851088163 -0.87590233305635312 
1 7.0279675403433259 0.99703398553559452 -0.99580950752706521 -0.091451761703664869 
8 0 14.761864057857657
1 7.6720370372933928 0.35296448858551344 -0.99580950752706521 -0.091451761703664869 
Curves 150
1 121.15000152587891 142.5 14.625 0.067565335195784684 -0.99771485178876695 0 
1 122.65000152587891 120.34999847412109 14.625 0 1 0 
1 122.65000152587891 139.64999389648438 14.625 -0.46574565176184951 0.88491863347142263 0 
1 122.65000152587891 139.64999389648438 14.625 0 1 0 
1 122.65000152587891 140.64999389648438 14.625 -0.6298007047585007 0.77675676520111225 0 
1 122.65000152587891 141 14.625 0 -1 0 
1 122.65000152587891 141 14.625 -0.70710678118654757 0.70710678118654757 0 
1 122.65000152587891 140.64999389648438 14.625 0.99971666404300263 0.023803185390407825 0 
1 137.35000610351562 141 14.625 -1 0 0 
1 137.35000610351562 140.64999389648438 14.625 -1 0 0 
1 137.35000610351562 140.64999389648438 14.625 0 1 0 
1 122.65000152587891 120.34999847412109 13.125 0 0 1 
1 122.65000152587891 120.34999847412109 13.625 1 0 0 
1 137.35000610351562 120.34999847412109 13.625 -0.99942203912724037 0 -0.033993936323246876 
1 137.35000610351562 120.34999847412109 13.125 0 0 1 
1 122.65000152587891 120.34999847412109 13.125 1 0 0 
1 122.65000152587891 119 13.125 0 1 0 
1 137.35000610351562 120.34999847412109 13.125 -0.99580950752706521 -0.091451761703664869 0 
1 137.35000610351562 119 13.125 0 1 0 
1 122.65000152587891 119 13.125 1 0 0 
1 122.65000152587891 139.64999389648438 13.625 0 0 -1 
1 122.65000152587891 139.64999389648438 13.125 0.99942203912724037 0 0.033993936323246876 
1 137.35000610351562 139.64999389648438 13.625 -1 0 0 
1 137.35000610351562 139.64999389648438 13.125 -1 0 0 
1 137.35000610351562 139.64999389648438 13.625 0 0 -1 
1 122.65000152587891 139.64999389648438 13.125 0 1 0 
1 122.65000152587891 141 13.125 0.99580946045985974 -0.091452274212525414 0 
1 137.35000610351562 141 13.125 -1 0 0 
1 137.35000610351562 139.64999389648438 13.125 0 1 0 
1 122.65000152587891 120.34999847412109 4.875 0 0 1 
1 122.65000152587891 120.34999847412109 6.375 0.99483414572371287 0 -0.10151365672740999 
1 137.35000610351562 120.34999847412109 4.875 -1 0 0 
1 122.65000152587891 120.34999847412109 6.375 1 0 0 
1 137.35000610351562 120.34999847412109 4.875 0 0 1 
1 122.65000152587891 136.75 5.375 0 0 -1 
1 122.65000152587891 136.75 4.875 1 0 0 
1 137.35000610351562 136.75 4.875 -0.99942203912724037 0 0.033993936323246876 
1 137.35000610351562 136.75 5.375 0 0 -1 
1 137.35000610351562 136.75 5.375 -1 0 0 
1 137.35000610351562 136.75 5.375 0 -0.9995355707056619 -0.030473642613033078 
1 137.35000610351562 120.34999847412109 6.375 0 0.99814615573316479 -0.060862564808796399 
1 137.35000610351562 120.34999847412109 13.125 0 0 -1 
1 137.35000610351562 120.34999847412109 13.125 0 0.90413036770212363 -0.42725668888716395 
1 137.35000610351562 120.34999847412109 6.375 0 -1 0 
1 137.35000610351562 119 6.375 0 0 1 
1 137.35000610351562 119 13.125 0 0.19611592199751929 -0.98058071831902904 
1 137.35000610351562 139.64999389648438 13.125 0 -1 0 
1 137.35000610351562 139.64999389648438 13.125 0 -0.35046052223075652 -0.93657750472544732 
1 137.35000610351562 120.34999847412109 13.625 0 0.99966458918828693 -0.025898052494612408 
1 137.35000610351562 139.64999389648438 13.625 0 -1 0 
1 137.35000610351562 120.34999847412109 13.625 0 -0.70710678118654746 0.70710678118654746 
1 137.35000610351562 119.34999847412109 14.625 0 1 0 
1 137.35000610351562 120.34999847412109 14.625 0 0 -1 
1 137.35000610351562 139.64999389648438 13.625 0 -0.99866037814494557 0.05174407331660702 
1 137.35000610351562 120.34999847412109 14.625 0 1 0 
1 137.35000610351562 139.64999389648438 14.625 0 0 -1 
1 137.35000610351562 139.64999389648438 14.625 0 1 0 
1 137.35000610351562 140.64999389648438 14.625 0 -0.70710678118654746 -0.70710678118654746 
1 137.35000610351562 137.75 6.375 0 -0.70710678118654746 -0.70710678118654746 
1 137.35000610351562 139.64999389648438 13.125 0 -0.27095125301822154 -0.96259307003938888 
1 137.35000610351562 136.75 4.875 0 -1 0 
1 137.35000610351562 141 6.375 0 -1 0 
1 137.35000610351562 141 6.375 0 -0.19611698770056502 0.9805805051780585 
1 137.35000610351562 141 13.125 0 0 -1 
1 137.35000610351562 136.75 5.375 -0.99540417907975065 0.067714548918853409 0.067714548918853409 
1 122.65000152587891 137.75 6.375 0 -0.70710678118654746 -0.70710678118654746 
1 137.35000610351562 137.75 6.375 -1 0 0 
1 137.35000610351562 136.75 4.875 0.077686584199763806 -0.99697783056363554 0 
1 137.35000610351562 120.34999847412109 4.875 0.46574662810066814 -0.88491811960929911 0 
1 137.35000610351562 119 4.875 0.70710678118654757 -0.70710678118654757 0 
1 138.85000610351562 117.5 4.875 -0.99574067644770892 0.092198184729738744 0 
1 122.65000152587891 119 4.875 1 0 0 
1 138.85000610351562 117.5 4.875 -1 0 0 
1 122.65000152587891 119 4.875 -0.70710678118654757 -0.70710678118654757 0 
1 121.15000152587891 117.5 4.875 0.46574662810066814 0.88491811960929911 0 
1 122.65000152587891 120.34999847412109 4.875 0 -1 0 
1 137.35000610351562 119 4.875 0 1 0 
1 121.15000152587891 117.5 4.875 0.077686584199763806 0.99697783056363554 0 
1 122.65000152587891 136.75 4.875 0 -1 0 
1 138.85000610351562 142.5 4.875 0 -1 0 
1 138.85000610351562 142.5 4.875 -0.25242189714700275 -0.96761727239684381 0 
1 137.35000610351562 141 4.875 0.70710678118654757 0.70710678118654757 0 
1 137.35000610351562 136.75 4.875 0 1 0 
1 121.15000152587891 142.5 4.875 1 0 0 
1 121.15000152587891 142.5 4.875 0.99574067644770892 -0.092198184729738744 0 
1 122.65000152587891 136.75 4.875 -0.25242189714700275 0.96761727239684381 0 
1 121.15000152587891 142.5 4.875 0.70710678118654757 -0.70710678118654757 0 
1 122.65000152587891 141 4.875 0 -1 0 
1 137.35000610351562 141 4.875 -1 0 0 
1 121.15000152587891 117.5 4.875 0 1 0 
1 122.65000152587891 141 6.375 0 -1 0 
1 137.35000610351562 137.75 6.375 -0.97642093910855199 0.21587531046966299 0 
1 137.35000610351562 141 6.375 -1 0 0 
1 137.35000610351562 141 13.125 -0.90877195056185145 0 -0.41729311265824642 
1 122.65000152587891 141 13.125 0 0 -1 
1 122.65000152587891 120.34999847412109 6.375 0 -1 0 
1 122.65000152587891 119 6.375 0.99580950752706521 0.091451761703664869 0 
1 122.65000152587891 119 6.375 1 0 0 
1 122.65000152587891 119 6.375 0 0 1 
1 122.65000152587891 119 13.125 0.90877195056185145 0 -0.41729311265824642 
1 137.35000610351562 139.64999389648438 13.625 -0.99540417907975065 0.067714548918853409 0.067714548918853409 
1 122.65000152587891 140.64999389648438 14.625 0 -0.70710678118654746 -0.70710678118654746 
1 137.35000610351562 119.34999847412109 14.625 -0.99540417907975065 0.067714548918853409 -0.067714548918853409 
1 122.65000152587891 120.34999847412109 13.625 0 -0.70710678118654746 0.70710678118654746 
1 122.65000152587891 119.34999847412109 14.625 1 0 0 
1 138.85000610351562 117.5 14.625 -0.62980227183742243 0.77675549459815318 0 
1 138.85000610351562 117.5 14.625 -0.46574662810066814 0.88491811960929911 0 
1 122.65000152587891 119.34999847412109 14.625 -0.62980227183742243 -0.77675549459815318 0 
1 121.15000152587891 117.5 14.625 0.70710678118654757 0.70710678118654757 0 
1 122.65000152587891 119 14.625 0 1 0 
1 122.65000152587891 120.34999847412109 14.625 -0.46574662810066814 -0.88491811960929911 0 
1 122.65000152587891 119.34999847412109 14.625 0 1 0 
1 137.35000610351562 119 14.625 -1 0 0 
1 137.35000610351562 119 14.625 -0.99574067644770892 -0.092198184729738744 0 
1 121.15000152587891 117.5 14.625 1 0 0 
1 138.85000610351562 117.5 14.625 -0.70710678118654757 0.70710678118654757 0 
1 137.35000610351562 119.34999847412109 14.625 0 -1 0 
1 121.15000152587891 142.5 14.625 0 -1 0 
1 137.35000610351562 141 14.625 -0.99574067644770892 0.092198184729738744 0 
1 138.85000610351562 142.5 14.625 -0.70710678118654757 -0.70710678118654757 0 
1 137.35000610351562 140.64999389648438 14.625 0.6298007047585007 0.77675676520111225 0 
1 137.35000610351562 139.64999389648438 14.625 0.46574565176184951 0.88491863347142263 0 
1 137.35000610351562 120.34999847412109 14.625 0.067565335195784684 0.99771485178876695 0 
1 138.85000610351562 117.5 14.625 0 1 0 
1 138.85000610351562 142.5 14.625 -1 0 0 
1 137.35000610351562 119 14.625 -0.99971667638987105 0.02380266682516357 0 
1 122.65000152587891 139.64999389648438 14.625 0 0 -1 
1 122.65000152587891 139.64999389648438 13.125 0 0.19611698770056502 -0.9805805051780585 
1 122.65000152587891 139.64999389648438 13.125 0 -0.27095125301822154 -0.96259307003938888 
1 122.65000152587891 139.64999389648438 13.125 0 -0.35046052223075652 -0.93657750472544732 
1 122.65000152587891 120.34999847412109 13.625 0 0.99866037814494557 0.05174407331660702 
1 122.65000152587891 120.34999847412109 14.625 0 0 -1 
1 122.65000152587891 120.34999847412109 13.625 0 1 0 
1 122.65000152587891 120.34999847412109 13.125 0 1 0 
1 122.65000152587891 139.64999389648438 13.625 0 -0.99966458918828693 -0.025898052494612408 
1 122.65000152587891 120.34999847412109 13.125 0 0.90413036770212363 -0.42725668888716395 
1 122.65000152587891 120.34999847412109 6.375 0 0 1 
1 122.65000152587891 119 13.125 0 0.19611592199751929 -0.98058071831902904 
1 122.65000152587891 120.34999847412109 6.375 0 0.99814615573316479 -0.060862564808796399 
1 122.65000152587891 136.75 5.375 0 -0.9995355707056619 -0.030473642613033078 
1 137.35000610351562 141 4.875 -0.96065610193968165 -0.27774062325496407 0 
1 138.85000610351562 142.5 4.875 0 -0.9316545551067793 0.36334527649164394 
1 138.85000610351562 117.5 14.625 0 0 -1 
1 138.85000610351562 142.5 4.875 0 0 1 
1 121.15000152587891 142.5 4.875 0.87590233305635301 0 0.48248844851088157 
1 121.15000152587891 142.5 4.875 0 0 1 
1 121.15000152587891 117.5 4.875 0 0.9316545551067793 0.36334527649164394 
1 121.15000152587891 117.5 4.875 0 0 1 
1 138.85000610351562 117.5 4.875 -0.87590233305635301 0 0.48248844851088157 
1 122.65000152587891 120.34999847412109 4.875 0.99580950752706521 -0.091451761703664869 0 
Polygon3D 0
PolygonOnTriangulations 0
Surfaces 100
1 122.22367220671565 131.5049752156124 14.625000000000002 0 0 1 1 0 -0 -0 1 0 
1 121.52813538114495 129.92002380194737 14.625000000000002 0 0 1 1 0 -0 -0 1 0 
1 122.65000152587889 129.75646852971431 14.36852765558841 1 0 0 -0 0 1 0 -1 0 
1 122.01359748037305 141.11526290563114 14.625 0 0 1 1 0 -0 -0 1 0 
1 122.65000152587891 140.00354728707765 14.271446609406729 1 0 0 -0 0 1 0 -1 0 
1 121.95409236301553 141.5974021065843 14.625000000000004 0 0 1 1 0 -0 -0 1 0 
1 129.91354384389456 140.91145691904489 14.625 0 0 1 1 0 -0 -0 1 0 
1 129.11199778281983 141.41682396615215 14.624999999999998 0 0 1 1 0 -0 -0 1 0 
1 130.08646378549994 140.73853697743951 14.625 0 0 1 1 0 -0 -0 1 0 
1 130.33658957797255 140.38799597214717 14.363002075662788 0 -0.70710678118654746 0.70710678118654768 0 0.70710678118654768 0.70710678118654746 -1 0 0 
1 138.04591526637901 141.5974021065843 14.625000000000004 0 0 1 1 0 -0 -0 1 0 
1 129.87712904986887 120.34999847412108 13.49787476482841 0 1 0 0 -0 1 1 0 -0 
1 122.65000152587892 129.87661508508191 13.498381100220843 1 0 0 -0 0 1 0 -1 0 
1 130.33658957797255 120.08800054978391 13.886997924337212 0 0.70710678118654746 0.70710678118654768 0 0.70710678118654768 -0.70710678118654746 -1 0 0 
1 130.12287857952569 120.34999847412109 13.25212523517159 0 1 0 0 -0 1 1 0 -0 
1 137.35000610351565 129.87661508508191 13.251618899779158 -1 -0 -0 0 0 -1 0 -1 0 
1 129.67796906622223 119.99703398553558 13.125000000000002 -0 -0 -1 -1 0 0 0 1 -0 
1 122.65000152587892 119.97907984456559 10.054080607505036 1 0 0 -0 0 1 0 -1 0 
1 130.3220385631723 119.3529644885855 13.125000000000002 -0 -0 -1 -1 0 0 0 1 -0 
1 137.35000610351562 119.97907984456559 10.054080607505036 -1 -0 -0 0 0 -1 0 -1 0 
1 131.3185848731739 118.99999999999999 11.068581058476623 0 1 0 0 -0 1 1 0 -0 
1 129.87712904986887 139.6499938964844 13.49787476482841 -0 -1 -0 0 0 -1 1 -0 0 
1 122.65000152587892 130.12337728552359 13.251618899779158 1 0 0 -0 0 1 0 -1 0 
1 130.12287857952569 139.6499938964844 13.25212523517159 -0 -1 -0 0 0 -1 1 -0 0 
1 129.66341805142204 139.91199182082164 13.886997924337212 0 -0.70710678118654746 0.70710678118654768 0 0.70710678118654768 0.70710678118654746 -1 0 0 
1 129.67796733330445 140.0029604668494 13.125 -0 -0 -1 -1 0 0 0 1 -0 
1 137.35000610351565 130.12337728552359 13.498381100220843 -1 -0 -0 0 0 -1 0 -1 0 
1 122.65000152587891 140.62907908903341 10.054082140791218 1 0 0 -0 0 1 0 -1 0 
1 130.32204029609005 140.64703342963497 13.125 -0 -0 -1 -1 0 0 0 1 -0 
1 128.68142275622066 141 11.068581058476623 -0 -1 -0 0 0 -1 1 -0 0 
1 137.35000610351562 140.62907908903341 10.054082140791218 -1 -0 -0 0 0 -1 0 -1 0 
1 129.64408691559285 120.34999847412109 5.2690831008955721 0 1 0 0 -0 1 1 0 -0 
1 122.65000152587891 128.19179632763488 5.5057098339583117 1 0 0 -0 0 1 0 -1 0 
1 130.35592071380171 120.34999847412109 5.980916899104427 0 1 0 0 -0 1 1 0 -0 
1 130.3220385631723 119.99703398553558 4.875 -0 -0 -1 -1 0 0 0 1 -0 
1 129.67796906622223 119.99703398553558 6.3749999999999991 0 0 1 1 0 -0 -0 1 0 
1 137.35000610351562 128.19179632763488 5.5057098339583126 -1 -0 -0 0 0 -1 0 -1 0 
1 129.87712904986887 136.75 5.0021252351715892 -0 -1 -0 0 0 -1 1 -0 0 
1 122.65000152587893 128.67309419201789 5.001905045042677 1 0 0 -0 0 1 0 -1 0 
1 130.91199327288604 137.96301054181123 4.875 -0 -0 -1 -1 0 0 0 1 -0 
1 130.12287857952569 136.75 5.247874764828409 -0 -1 -0 0 0 -1 1 -0 0 
1 137.35000610351565 128.67309419201789 5.001905045042677 -1 -0 -0 0 0 -1 0 -1 0 
1 129.66341805142198 137.01199792433718 5.6369979243372113 0 -0.70710678118654746 0.70710678118654768 0 0.70710678118654768 0.70710678118654746 -1 0 0 
1 137.35000610351562 127.21043593634167 7.9896294267252363 -1 -0 -0 0 0 -1 0 -1 0 
1 137.35000610351562 130.90895566471795 10.885994157846188 -1 -0 -0 0 0 -1 0 -1 0 
1 137.35000610351562 119.37091862955552 9.4459193924949627 -1 -0 -0 0 0 -1 0 -1 0 
1 130.3220385631723 119.3529644885855 6.3749999999999991 0 0 1 1 0 -0 -0 1 0 
1 137.35000610351562 138.32948697723111 9.1741487845201419 -1 -0 -0 0 0 -1 0 -1 0 
1 137.35000610351562 129.75646852971431 13.88147234441159 -1 -0 -0 0 0 -1 0 -1 0 
1 137.35000610351562 119.99644508352782 14.271446609406729 -1 -0 -0 0 0 -1 0 -1 0 
1 137.98640993089856 118.88473307336848 14.625000000000002 0 0 1 1 0 -0 -0 1 0 
1 137.35000610351562 130.24352384089113 14.36852765558841 -1 -0 -0 0 0 -1 0 -1 0 
1 137.77633542267893 131.5049752156124 14.625000000000002 0 0 1 1 0 -0 -0 1 0 
1 137.35000610351562 140.00354728707765 14.271446609406727 -1 -0 -0 0 0 -1 0 -1 0 
1 137.98641014902148 141.11526290563114 14.625 0 0 1 1 0 -0 -0 1 0 
1 130.33658957797255 137.48800207566282 6.1130020756627887 0 -0.70710678118654746 0.70710678118654768 0 0.70710678118654768 0.70710678118654746 -1 0 0 
1 137.35000610351562 139.48033909589356 9.1102730291234142 -1 -0 -0 0 0 -1 0 -1 0 
1 137.78404616763117 127.04692908900276 4.8749999999999991 -0 -0 -1 -1 0 0 0 1 -0 
1 130.72375820070084 140.09875438600355 6.3749999999999991 0 0 1 1 0 -0 -0 1 0 
1 131.3185848731739 140.99999999999997 8.4314189415233773 -0 -1 -0 0 0 -1 1 -0 0 
1 122.65000152587891 138.32948697723111 9.1741487845201402 1 0 0 -0 0 1 0 -1 0 
1 129.27624942869369 138.65124561399642 6.3749999999999982 0 0 1 1 0 -0 -0 1 0 
1 138.473134600847 130.03351976183814 4.8749999999999982 -0 -0 -1 -1 0 0 0 1 -0 
1 137.94870517587043 118.86232834083027 4.875 -0 -0 -1 -1 0 0 0 1 -0 
1 130.88800984657473 118.58317603384785 4.8750000000000009 -0 -0 -1 -1 0 0 0 1 -0 
1 129.86199778281977 117.88217585812724 4.8749999999999991 -0 -0 -1 -1 0 0 0 1 -0 
1 129.67796906622223 119.3529644885855 4.875 -0 -0 -1 -1 0 0 0 1 -0 
1 128.1894370896984 117.5 7.9394332750011269 -0 -1 -0 0 0 -1 1 -0 0 
1 122.05130245352414 118.86232834083027 4.875 -0 -0 -1 -1 0 0 0 1 -0 
1 122.21596146176333 127.04692908900276 4.8749999999999991 -0 -0 -1 -1 0 0 0 1 -0 
1 121.52687302854751 130.03351976183819 4.875 -0 -0 -1 -1 0 0 0 1 -0 
1 138.85000610351562 128.02099508086576 7.7709950808657533 1 0 0 -0 0 1 0 -1 0 
1 137.84114918735133 139.73222204538931 4.875 -0 -0 -1 -1 0 0 0 1 -0 
1 130.13800984657468 142.11782414187272 4.8749999999999991 -0 -0 -1 -1 0 0 0 1 -0 
1 131.81057053969613 142.5 7.9394332750011269 0 1 0 0 -0 1 1 0 -0 
1 129.1119977828198 141.41682396615215 4.8749999999999991 -0 -0 -1 -1 0 0 0 1 -0 
1 122.15885844204318 139.73222204538934 4.875 -0 -0 -1 -1 0 0 0 1 -0 
1 129.08801435650847 139.7869894581888 4.8750000000000009 -0 -0 -1 -1 0 0 0 1 -0 
1 121.15000152587889 131.97900491913424 7.7709950808657533 -1 -0 -0 0 0 -1 0 -1 0 
1 122.65000152587891 139.48033909589356 9.1102730291234142 1 0 0 -0 0 1 0 -1 0 
1 122.65000152587891 119.37091862955552 9.4459193924949627 1 0 0 -0 0 1 0 -1 0 
1 128.68142275622066 118.99999999999999 8.4314189415233773 0 1 0 0 -0 1 1 0 -0 
1 129.66341805142198 119.61199639845832 14.363002075662788 0 0.70710678118654746 0.70710678118654768 0 0.70710678118654768 -0.70710678118654746 -1 0 0 
1 122.65000152587891 119.99644508352785 14.271446609406727 1 0 0 -0 0 1 0 -1 0 
1 130.08646192355181 119.26145734591508 14.625 0 0 1 1 0 -0 -0 1 0 
1 138.04591629436055 118.40259450452234 14.625000000000002 0 0 1 1 0 -0 -0 1 0 
1 138.47187224824958 129.92002380194737 14.625 0 0 1 1 0 -0 -0 1 0 
1 121.95409133503401 118.40259450452234 14.625000000000002 0 0 1 1 0 -0 -0 1 0 
1 122.01359769849599 118.88473307336847 14.625 0 0 1 1 0 -0 -0 1 0 
1 129.11199778281986 118.58317603384785 14.625000000000002 0 0 1 1 0 -0 -0 1 0 
1 129.91354570584272 119.088541128206 14.624999999999998 0 0 1 1 0 -0 -0 1 0 
1 130.1380098465747 117.88217585812724 14.624999999999998 0 0 1 1 0 -0 -0 1 0 
1 131.81057053969613 117.5 11.560566724998871 -0 -1 -0 0 0 -1 1 -0 0 
1 121.15000152587889 128.02099508086576 11.729004919134248 -1 -0 -0 0 0 -1 0 -1 0 
1 130.1380098465747 142.11782414187272 14.624999999999998 0 0 1 1 0 -0 -0 1 0 
1 138.85000610351562 131.97900491913424 11.729004919134248 1 0 0 -0 0 1 0 -1 0 
1 128.18943708969837 142.5 11.560566724998871 0 1 0 0 -0 1 1 0 -0 
1 122.65000152587889 130.24352384089113 13.88147234441159 1 0 0 -0 0 1 0 -1 0 
1 122.65000152587889 130.90895566471795 10.885994157846184 1 0 0 -0 0 1 0 -1 0 
1 122.65000152587892 127.21043593634167 7.9896294267252346 1 0 0 -0 0 1 0 -1 0 
Triangulations 0

TShapes 402
Ve
1e-07
121.150001525879 142.5 14.625
0 0

0101101
*
Ve
1e-07
122.650001525879 120.349998474121 14.625
0 0

0101101
*
Ed
 1e-07 1 1 0
1  1 0 0 22.2007334923069
2  1 1 0 0 22.2007334923069
2  2 2 0 0 22.2007334923069
4 CN 1 0 2 0
0

0101000
+402 0 -401 0 *
Ve
1e-07
122.650001525879 139.649993896484 14.625
0 0

0101101
*
Ed
 1e-07 1 1 0
1  2 0 0 19.2999954223633
2  3 1 0 0 19.2999954223633
2  4 3 0 0 19.2999954223633
4 C0 1 0 3 0
0

0101000
+401 0 -399 0 *
Ed
 1e-07 1 1 0
1  3 0 0 3.22064198415103
2  5 1 0 0 3.22064198415103
2  6 4 0 0 3.22064198415103
4 CN 1 0 4 0
0

0101000
+399 0 -402 0 *
Wi

0101100
+400 0 +398 0 +397 0 *
Fa
0  1e-07 1 0

0101000
+396 0 *
Ve
1e-07
122.650001525879 140.649993896484 14.625
0 0

0101101
*
Ed
 1e-07 1 1 0
1  4 0 0 1
2  7 4 0 0 1
2  8 5 0 0 1
4 C0 4 0 5 0
0

0101000
+399 0 -394 0 *
Ed
 1e-07 1 1 0
1  5 0 0 2.38170581370686
2  9 4 0 0 2.38170581370686
2  10 6 0 0 2.38170581370686
4 CN 4 0 6 0
0

0101000
+394 0 -402 0 *
Wi

0101100
-397 0 +393 0 +392 0 *
Fa
0  1e-07 4 0

0101000
+391 0 *
Ve
1e-07
122.650001525879 141 14.625
0 0

0101101
*
Ed
 1e-07 1 1 0
1  6 0 0 0.350006103515625
2  11 7 0 0 0.350006103515625
2  12 6 0 0 0.350006103515625
4 CN 6 0 7 0
0

0101000
+389 0 -394 0 *
Ed
 1e-07 1 1 0
1  7 0 0 2.12132034355964
2  13 6 0 0 2.12132034355964
2  14 8 0 0 2.12132034355964
4 CN 6 0 8 0
0

0101000
+389 0 -402 0 *
Wi

0101100
-392 0 -388 0 +387 0 *
Fa
0  1e-07 6 0

0101000
+386 0 *
Ve
1e-07
137.350006103516 141 14.625
0 0

0101101
*
Ed
 1e-07 1 1 0
1  8 0 0 14.7041707979416
2  15 7 0 0 14.7041707979416
2  16 9 0 0 14.7041707979416
4 CN 7 0 9 0
0

0101000
+394 0 -384 0 *
Ed
 1e-07 1 1 0
1  9 0 0 14.7000045776367
2  17 7 0 0 14.7000045776367
2  18 8 0 0 14.7000045776367
4 CN 7 0 8 0
0

0101000
+384 0 -389 0 *
Wi

0101100
+388 0 +383 0 +382 0 *
Fa
0  1e-07 7 0

0101000
+381 0 *
Ve
1e-07
137.350006103516 140.649993896484 14.625
0 0

0101101
*
Ed
 1e-07 1 1 0
1  10 0 0 14.7000045776367
2  19 10 0 0 14.7000045776367
2  20 9 0 0 14.7000045776367
4 C0 9 0 10 0
0

0101000
+379 0 -394 0 *
Ed
 1e-07 1 1 0
1  11 0 0 0.350006103515625
2  21 9 0 0 0.350006103515625
2  22 11 0 0 0.350006103515625
4 CN 9 0 11 0
0

0101000
+379 0 -384 0 *
Wi

0101100
-383 0 -378 0 +377 0 *
Fa
0  1e-07 9 0

0101000
+376 0 *
Ve
1e-07
122.650001525879 120.349998474121 13.125
0 0

0101101
*
Ve
1e-07
122.650001525879 120.349998474121 13.625
0 0

0101101
*
Ed
 1e-07 1 1 0
1  12 0 0 0.5
2  23 12 0 0 0.5
2  24 13 0 0 0.5
4 C0 12 0 13 0
0

0101000
+374 0 -373 0 *
Ve
1e-07
137.350006103516 120.349998474121 13.625
0 0

0101101
*
Ed
 1e-07 1 1 0
1  13 0 0 14.7000045776367
2  25 12 0 0 14.7000045776367
2  26 14 0 0 14.7000045776367
4 C0 12 0 14 0
0

0101000
+373 0 -371 0 *
Ed
 1e-07 1 1 0
1  14 0 0 14.7085055183231
2  27 12 0 0 14.7085055183231
2  28 15 0 0 14.7085055183231
4 CN 12 0 15 0
0

0101000
+371 0 -374 0 *
Wi

0101100
+372 0 +370 0 +369 0 *
Fa
0  1e-07 12 0

0101000
+368 0 *
Ve
1e-07
137.350006103516 120.349998474121 13.125
0 0

0101101
*
Ed
 1e-07 1 1 0
1  15 0 0 0.5
2  29 16 0 0 0.5
2  30 15 0 0 0.5
4 C0 15 0 16 0
0

0101000
+366 0 -371 0 *
Ed
 1e-07 1 1 0
1  16 0 0 14.7000045776367
2  31 17 0 0 14.7000045776367
2  32 15 0 0 14.7000045776367
4 C0 15 0 17 0
0

0101000
+374 0 -366 0 *
Wi

0101100
-369 0 -365 0 -364 0 *
Fa
0  1e-07 15 0

0101000
+363 0 *
Ve
1e-07
122.650001525879 119 13.125
0 0

0101101
*
Ed
 1e-07 1 1 0
1  17 0 0 1.34999847412109
2  33 17 0 0 1.34999847412109
2  34 18 0 0 1.34999847412109
4 C0 17 0 18 0
0

0101000
+361 0 -374 0 *
Ed
 1e-07 1 1 0
1  18 0 0 14.7618640578577
2  35 17 0 0 14.7618640578577
2  36 19 0 0 14.7618640578577
4 CN 17 0 19 0
0

0101000
+366 0 -361 0 *
Wi

0101100
+360 0 +364 0 +359 0 *
Fa
0  1e-07 17 0

0101000
+358 0 *
Ve
1e-07
137.350006103516 119 13.125
0 0

0101101
*
Ed
 1e-07 1 1 0
1  19 0 0 1.34999847412109
2  37 20 0 0 1.34999847412109
2  38 19 0 0 1.34999847412109
4 C0 19 0 20 0
0

0101000
+356 0 -366 0 *
Ed
 1e-07 1 1 0
1  20 0 0 14.7000045776367
2  39 21 0 0 14.7000045776367
2  40 19 0 0 14.7000045776367
4 C0 19 0 21 0
0

0101000
+361 0 -356 0 *
Wi

0101100
-359 0 -355 0 -354 0 *
Fa
0  1e-07 19 0

0101000
+353 0 *
Ve
1e-07
122.650001525879 139.649993896484 13.625
0 0

0101101
*
Ve
1e-07
122.650001525879 139.649993896484 13.125
0 0

0101101
*
Ed
 1e-07 1 1 0
1  21 0 0 0.5
2  41 22 0 0 0.5
2  42 23 0 0 0.5
4 C0 22 0 23 0
0

0101000
+351 0 -350 0 *
Ve
1e-07
137.350006103516 139.649993896484 13.625
0 0

0101101
*
Ed
 1e-07 1 1 0
1  22 0 0 14.7085055183231
2  43 22 0 0 14.7085055183231
2  44 24 0 0 14.7085055183231
4 CN 22 0 24 0
0

0101000
+350 0 -348 0 *
Ed
 1e-07 1 1 0
1  23 0 0 14.7000045776367
2  45 22 0 0 14.7000045776367
2  46 25 0 0 14.7000045776367
4 C0 22 0 25 0
0

0101000
+348 0 -351 0 *
Wi

0101100
+349 0 +347 0 +346 0 *
Fa
0  1e-07 22 0

0101000
+345 0 *
Ve
1e-07
137.350006103516 139.649993896484 13.125
0 0

0101101
*
Ed
 1e-07 1 1 0
1  24 0 0 14.7000045776367
2  47 26 0 0 14.7000045776367
2  48 24 0 0 14.7000045776367
4 C0 24 0 26 0
0

0101000
+343 0 -350 0 *
Ed
 1e-07 1 1 0
1  25 0 0 0.5
2  49 27 0 0 0.5
2  50 24 0 0 0.5
4 C0 24 0 27 0
0

0101000
+348 0 -343 0 *
Wi

0101100
-347 0 -342 0 -341 0 *
Fa
0  1e-07 24 0

0101000
+340 0 *
Ve
1e-07
122.650001525879 141 13.125
0 0

0101101
*
Ed
 1e-07 1 1 0
1  26 0 0 1.35000610351562
2  51 26 0 0 1.35000610351562
2  52 28 0 0 1.35000610351562
4 C0 26 0 28 0
0

0101000
+350 0 -338 0 *
Ed
 1e-07 1 1 0
1  27 0 0 14.7618647555812
2  53 26 0 0 14.7618647555812
2  54 29 0 0 14.7618647555812
4 CN 26 0 29 0
0

0101000
+338 0 -343 0 *
Wi

0101100
+337 0 +336 0 +342 0 *
Fa
0  1e-07 26 0

0101000
+335 0 *
Ve
1e-07
137.350006103516 141 13.125
0 0

0101101
*
Ed
 1e-07 1 1 0
1  28 0 0 14.7000045776367
2  55 30 0 0 14.7000045776367
2  56 29 0 0 14.7000045776367
4 C0 29 0 30 0
0

0101000
+333 0 -338 0 *
Ed
 1e-07 1 1 0
1  29 0 0 1.35000610351562
2  57 31 0 0 1.35000610351562
2  58 29 0 0 1.35000610351562
4 C0 29 0 31 0
0

0101000
+343 0 -333 0 *
Wi

0101100
-336 0 -332 0 -331 0 *
Fa
0  1e-07 29 0

0101000
+330 0 *
Ve
1e-07
122.650001525879 120.349998474121 4.875
0 0

0101101
*
Ve
1e-07
122.650001525879 120.349998474121 6.375
0 0

0101101
*
Ed
 1e-07 1 1 0
1  30 0 0 1.5
2  59 32 0 0 1.5
2  60 33 0 0 1.5
4 C0 32 0 33 0
0

0101000
+328 0 -327 0 *
Ve
1e-07
137.350006103516 120.349998474121 4.875
0 0

0101101
*
Ed
 1e-07 1 1 0
1  31 0 0 14.776336981219
2  61 32 0 0 14.776336981219
2  62 34 0 0 14.776336981219
4 CN 32 0 34 0
0

0101000
+327 0 -325 0 *
Ed
 1e-07 1 1 0
1  32 0 0 14.7000045776367
2  63 32 0 0 14.7000045776367
2  64 35 0 0 14.7000045776367
4 C0 32 0 35 0
0

0101000
+325 0 -328 0 *
Wi

0101100
+326 0 +324 0 +323 0 *
Fa
0  1e-07 32 0

0101000
+322 0 *
Ve
1e-07
137.350006103516 120.349998474121 6.375
0 0

0101101
*
Ed
 1e-07 1 1 0
1  33 0 0 14.7000045776367
2  65 34 0 0 14.7000045776367
2  66 36 0 0 14.7000045776367
4 C0 34 0 36 0
0

0101000
+327 0 -320 0 *
Ed
 1e-07 1 1 0
1  34 0 0 1.5
2  67 37 0 0 1.5
2  68 34 0 0 1.5
4 C0 34 0 37 0
0

0101000
+325 0 -320 0 *
Wi

0101100
-324 0 +319 0 -318 0 *
Fa
0  1e-07 34 0

0101000
+317 0 *
Ve
1e-07
122.650001525879 136.75 5.375
0 0

0101101
*
Ve
1e-07
122.650001525879 136.75 4.875
0 0

0101101
*
Ed
 1e-07 1 1 0
1  35 0 0 0.5
2  69 38 0 0 0.5
2  70 39 0 0 0.5
4 C0 38 0 39 0
0

0101000
+315 0 -314 0 *
Ve
1e-07
137.350006103516 136.75 4.875
0 0

0101101
*
Ed
 1e-07 1 1 0
1  36 0 0 14.7000045776367
2  71 38 0 0 14.7000045776367
2  72 40 0 0 14.7000045776367
4 C0 38 0 40 0
0

0101000
+314 0 -312 0 *
Ed
 1e-07 1 1 0
1  37 0 0 14.7085055183231
2  73 38 0 0 14.7085055183231
2  74 41 0 0 14.7085055183231
4 CN 38 0 41 0
0

0101000
+312 0 -315 0 *
Wi

0101100
+313 0 +311 0 +310 0 *
Fa
0  1e-07 38 0

0101000
+309 0 *
Ve
1e-07
137.350006103516 136.75 5.375
0 0

0101101
*
Ed
 1e-07 1 1 0
1  38 0 0 0.5
2  75 42 0 0 0.5
2  76 41 0 0 0.5
4 C0 41 0 42 0
0

0101000
+307 0 -312 0 *
Ed
 1e-07 1 1 0
1  39 0 0 14.7000045776367
2  77 41 0 0 14.7000045776367
2  78 43 0 0 14.7000045776367
4 C0 41 0 43 0
0

0101000
+307 0 -315 0 *
Wi

0101100
-310 0 -306 0 +305 0 *
Fa
0  1e-07 41 0

0101000
+304 0 *
Ed
 1e-07 1 1 0
1  40 0 0 16.4076217060496
2  79 37 0 0 16.4076217060496
2  80 42 0 0 16.4076217060496
4 CN 37 0 42 0
0

0101000
+307 0 -325 0 *
Ed
 1e-07 1 1 0
1  41 0 0 16.4304610418829
2  81 37 0 0 16.4304610418829
2  82 44 0 0 16.4304610418829
4 CN 37 0 44 0
0

0101000
+320 0 -307 0 *
Wi

0101100
+302 0 +318 0 +301 0 *
Fa
0  1e-07 37 0

0101000
+300 0 *
Ed
 1e-07 1 1 0
1  42 0 0 6.75
2  83 20 0 0 6.75
2  84 44 0 0 6.75
4 CN 44 0 20 0
0

0101000
+366 0 -320 0 *
Ed
 1e-07 1 1 0
1  43 0 0 18.1389787487838
2  85 44 0 0 18.1389787487838
2  86 45 0 0 18.1389787487838
4 CN 44 0 45 0
0

0101000
+366 0 -307 0 *
Wi

0101100
-301 0 -298 0 +297 0 *
Fa
0  1e-07 44 0

0101000
+296 0 *
Ve
1e-07
137.350006103516 119 6.375
0 0

0101101
*
Ed
 1e-07 1 1 0
1  44 0 0 1.34999847412109
2  87 46 0 0 1.34999847412109
2  88 47 0 0 1.34999847412109
4 C0 46 0 47 0
0

0101000
+320 0 -294 0 *
Ed
 1e-07 1 1 0
1  45 0 0 6.75
2  89 46 0 0 6.75
2  90 21 0 0 6.75
4 C0 46 0 21 0
0

0101000
+294 0 -356 0 *
Ed
 1e-07 1 1 0
1  46 0 0 6.88367604410095
2  91 46 0 0 6.88367604410095
2  92 20 0 0 6.88367604410095
4 CN 46 0 20 0
0

0101000
+356 0 -320 0 *
Wi

0101100
+293 0 +292 0 +291 0 *
Fa
0  1e-07 46 0

0101000
+290 0 *
Wi

0101100
-291 0 +355 0 +298 0 *
Fa
0  1e-07 20 0

0101000
+288 0 *
Ed
 1e-07 1 1 0
1  47 0 0 19.2999954223633
2  93 16 0 0 19.2999954223633
2  94 45 0 0 19.2999954223633
4 CN 45 0 16 0
0

0101000
+343 0 -366 0 *
Ed
 1e-07 1 1 0
1  48 0 0 8.27480903705014
2  95 45 0 0 8.27480903705014
2  96 48 0 0 8.27480903705014
4 CN 45 0 48 0
0

0101000
+343 0 -307 0 *
Wi

0101100
-297 0 -286 0 +285 0 *
Fa
0  1e-07 45 0

0101000
+284 0 *
Ed
 1e-07 1 1 0
1  49 0 0 19.3064710214799
2  97 16 0 0 19.3064710214799
2  98 27 0 0 19.3064710214799
4 CN 16 0 27 0
0

0101000
+371 0 -343 0 *
Wi

0101100
+286 0 +365 0 +282 0 *
Fa
0  1e-07 16 0

0101000
+281 0 *
Ed
 1e-07 1 1 0
1  50 0 0 19.2999954223633
2  99 49 0 0 19.2999954223633
2  100 27 0 0 19.2999954223633
4 CN 27 0 49 0
0

0101000
+348 0 -371 0 *
Wi

0101100
-282 0 -279 0 +341 0 *
Fa
0  1e-07 27 0

0101000
+278 0 *
Ve
1e-07
137.350006103516 119.349998474121 14.625
0 0

0101101
*
Ed
 1e-07 1 1 0
1  51 0 0 1.4142135623731
2  101 50 0 0 1.4142135623731
2  102 14 0 0 1.4142135623731
4 C0 50 0 14 0
0

0101000
+371 0 -276 0 *
Ve
1e-07
137.350006103516 120.349998474121 14.625
0 0

0101101
*
Ed
 1e-07 1 1 0
1  52 0 0 1
2  103 50 0 0 1
2  104 51 0 0 1
4 C0 50 0 51 0
0

0101000
+276 0 -274 0 *
Ed
 1e-07 1 1 0
1  53 0 0 1
2  105 50 0 0 1
2  106 49 0 0 1
4 CN 50 0 49 0
0

0101000
+274 0 -371 0 *
Wi

0101100
+275 0 +273 0 +272 0 *
Fa
0  1e-07 50 0

0101000
+271 0 *
Ed
 1e-07 1 1 0
1  54 0 0 19.3258848000096
2  107 52 0 0 19.3258848000096
2  108 49 0 0 19.3258848000096
4 CN 49 0 52 0
0

0101000
+348 0 -274 0 *
Wi

0101100
+279 0 -272 0 -269 0 *
Fa
0  1e-07 49 0

0101000
+268 0 *
Ve
1e-07
137.350006103516 139.649993896484 14.625
0 0

0101101
*
Ed
 1e-07 1 1 0
1  55 0 0 19.2999954223633
2  109 52 0 0 19.2999954223633
2  110 53 0 0 19.2999954223633
4 C0 52 0 53 0
0

0101000
+274 0 -266 0 *
Ed
 1e-07 1 1 0
1  56 0 0 1
2  111 52 0 0 1
2  112 54 0 0 1
4 CN 52 0 54 0
0

0101000
+266 0 -348 0 *
Wi

0101100
+269 0 +265 0 +264 0 *
Fa
0  1e-07 52 0

0101000
+263 0 *
Ed
 1e-07 1 1 0
1  57 0 0 1
2  113 54 0 0 1
2  114 55 0 0 1
4 C0 54 0 55 0
0

0101000
+266 0 -379 0 *
Ed
 1e-07 1 1 0
1  58 0 0 1.4142135623731
2  115 54 0 0 1.4142135623731
2  116 10 0 0 1.4142135623731
4 C0 54 0 10 0
0

0101000
+379 0 -348 0 *
Wi

0101100
-264 0 +261 0 +260 0 *
Fa
0  1e-07 54 0

0101000
+259 0 *
Ve
1e-07
137.350006103516 137.75 6.375
0 0

0101101
*
Ed
 1e-07 1 1 0
1  59 0 0 1.4142135623731
2  117 48 0 0 1.4142135623731
2  118 56 0 0 1.4142135623731
4 C0 48 0 56 0
0

0101000
+257 0 -307 0 *
Ed
 1e-07 1 1 0
1  60 0 0 7.01230894974529
2  119 48 0 0 7.01230894974529
2  120 57 0 0 7.01230894974529
4 CN 48 0 57 0
0

0101000
+343 0 -257 0 *
Wi

0101100
+256 0 -285 0 +255 0 *
Fa
0  1e-07 48 0

0101000
+254 0 *
Ed
 1e-07 1 1 0
1  61 0 0 16.4000015258789
2  121 42 0 0 16.4000015258789
2  122 58 0 0 16.4000015258789
4 C0 42 0 58 0
0

0101000
+312 0 -325 0 *
Wi

0101100
+252 0 -302 0 +306 0 *
Fa
0  1e-07 42 0

0101000
+251 0 *
Ve
1e-07
137.350006103516 141 6.375
0 0

0101101
*
Ed
 1e-07 1 1 0
1  62 0 0 3.25
2  123 57 0 0 3.25
2  124 59 0 0 3.25
4 C0 57 0 59 0
0

0101000
+249 0 -257 0 *
Ed
 1e-07 1 1 0
1  63 0 0 6.88367754035076
2  125 31 0 0 6.88367754035076
2  126 57 0 0 6.88367754035076
4 CN 57 0 31 0
0

0101000
+249 0 -343 0 *
Wi

0101100
+248 0 -255 0 -247 0 *
Fa
0  1e-07 57 0

0101000
+246 0 *
Ed
 1e-07 1 1 0
1  64 0 0 6.75
2  127 31 0 0 6.75
2  128 60 0 0 6.75
4 C0 31 0 60 0
0

0101000
+333 0 -249 0 *
Wi

0101100
+247 0 +331 0 +244 0 *
Fa
0  1e-07 31 0

0101000
+243 0 *
Ve
1e-07
122.650001525879 137.75 6.375
0 0

0101101
*
Ed
 1e-07 1 1 0
1  65 0 0 14.7678750869088
2  129 43 0 0 14.7678750869088
2  130 56 0 0 14.7678750869088
4 CN 43 0 56 0
0

0101000
+307 0 -241 0 *
Ed
 1e-07 1 1 0
1  66 0 0 1.4142135623731
2  131 43 0 0 1.4142135623731
2  132 61 0 0 1.4142135623731
4 C0 43 0 61 0
0

0101000
+241 0 -315 0 *
Wi

0101100
+240 0 +239 0 -305 0 *
Fa
0  1e-07 43 0

0101000
+238 0 *
Ed
 1e-07 1 1 0
1  67 0 0 14.7000045776367
2  133 56 0 0 14.7000045776367
2  134 62 0 0 14.7000045776367
4 C0 56 0 62 0
0

0101000
+257 0 -241 0 *
Wi

0101100
+236 0 -240 0 -256 0 *
Fa
0  1e-07 56 0

0101000
+235 0 *
Ve
1e-07
138.850006103516 117.5 4.875
0 0

0101101
*
Ed
 1e-07 1 1 0
1  68 0 0 19.3083531146496
2  135 58 0 0 19.3083531146496
2  136 63 0 0 19.3083531146496
4 CN 58 0 63 0
0

0101000
+312 0 -233 0 *
Ed
 1e-07 1 1 0
1  69 0 0 3.22063523275961
2  137 64 0 0 3.22063523275961
2  138 58 0 0 3.22063523275961
4 CN 58 0 64 0
0

0101000
+325 0 -233 0 *
Wi

0101100
-252 0 +232 0 -231 0 *
Fa
0  1e-07 58 0

0101000
+230 0 *
Ve
1e-07
137.350006103516 119 4.875
0 0

0101101
*
Ed
 1e-07 1 1 0
1  70 0 0 2.12132034355964
2  139 65 0 0 2.12132034355964
2  140 64 0 0 2.12132034355964
4 CN 65 0 64 0
0

0101000
+228 0 -233 0 *
Ve
1e-07
122.650001525879 119 4.875
0 0

0101101
*
Ed
 1e-07 1 1 0
1  71 0 0 16.2693007936866
2  141 65 0 0 16.2693007936866
2  142 66 0 0 16.2693007936866
4 CN 65 0 66 0
0

0101000
+233 0 -226 0 *
Ed
 1e-07 1 1 0
1  72 0 0 14.7000045776367
2  143 65 0 0 14.7000045776367
2  144 67 0 0 14.7000045776367
4 CN 65 0 67 0
0

0101000
+226 0 -228 0 *
Wi

0101100
+227 0 +225 0 +224 0 *
Fa
0  1e-07 65 0

0101000
+223 0 *
Ve
1e-07
121.150001525879 117.5 4.875
0 0

0101101
*
Ed
 1e-07 1 1 0
1  73 0 0 17.7000045776367
2  145 66 0 0 17.7000045776367
2  146 68 0 0 17.7000045776367
4 C0 66 0 68 0
0

0101000
+233 0 -221 0 *
Ed
 1e-07 1 1 0
1  74 0 0 2.12132034355964
2  147 69 0 0 2.12132034355964
2  148 66 0 0 2.12132034355964
4 CN 66 0 69 0
0

0101000
+226 0 -221 0 *
Wi

0101100
-225 0 +220 0 -219 0 *
Fa
0  1e-07 66 0

0101000
+218 0 *
Ed
 1e-07 1 1 0
1  75 0 0 3.22063523275961
2  149 69 0 0 3.22063523275961
2  150 70 0 0 3.22063523275961
4 CN 69 0 70 0
0

0101000
+221 0 -328 0 *
Ed
 1e-07 1 1 0
1  76 0 0 1.34999847412109
2  151 69 0 0 1.34999847412109
2  152 67 0 0 1.34999847412109
4 CN 69 0 67 0
0

0101000
+328 0 -226 0 *
Wi

0101100
+216 0 +215 0 +219 0 *
Fa
0  1e-07 69 0

0101000
+214 0 *
Ed
 1e-07 1 1 0
1  77 0 0 1.34999847412109
2  153 64 0 0 1.34999847412109
2  154 35 0 0 1.34999847412109
4 CN 64 0 35 0
0

0101000
+228 0 -325 0 *
Wi

0101100
+212 0 +231 0 -227 0 *
Fa
0  1e-07 64 0

0101000
+211 0 *
Ed
 1e-07 1 1 0
1  78 0 0 19.3083531146496
2  155 70 0 0 19.3083531146496
2  156 71 0 0 19.3083531146496
4 CN 70 0 71 0
0

0101000
+221 0 -314 0 *
Ed
 1e-07 1 1 0
1  79 0 0 16.4000015258789
2  157 70 0 0 16.4000015258789
2  158 39 0 0 16.4000015258789
4 C0 70 0 39 0
0

0101000
+314 0 -328 0 *
Wi

0101100
+209 0 +208 0 -216 0 *
Fa
0  1e-07 70 0

0101000
+207 0 *
Ve
1e-07
138.850006103516 142.5 4.875
0 0

0101101
*
Ed
 1e-07 1 1 0
1  80 0 0 25
2  159 63 0 0 25
2  160 72 0 0 25
4 C0 63 0 72 0
0

0101000
+205 0 -233 0 *
Ed
 1e-07 1 1 0
1  81 0 0 5.94243216200236
2  161 73 0 0 5.94243216200236
2  162 63 0 0 5.94243216200236
4 CN 63 0 73 0
0

0101000
+205 0 -312 0 *
Wi

0101100
+204 0 -232 0 -203 0 *
Fa
0  1e-07 63 0

0101000
+202 0 *
Ve
1e-07
137.350006103516 141 4.875
0 0

0101101
*
Ed
 1e-07 1 1 0
1  82 0 0 2.12132034355964
2  163 73 0 0 2.12132034355964
2  164 74 0 0 2.12132034355964
4 CN 73 0 74 0
0

0101000
+200 0 -205 0 *
Ed
 1e-07 1 1 0
1  83 0 0 4.25
2  165 73 0 0 4.25
2  166 40 0 0 4.25
4 CN 73 0 40 0
0

0101000
+312 0 -200 0 *
Wi

0101100
+199 0 +203 0 +198 0 *
Fa
0  1e-07 73 0

0101000
+197 0 *
Ve
1e-07
121.150001525879 142.5 4.875
0 0

0101101
*
Ed
 1e-07 1 1 0
1  84 0 0 17.7000045776367
2  167 74 0 0 17.7000045776367
2  168 75 0 0 17.7000045776367
4 C0 74 0 75 0
0

0101000
+195 0 -205 0 *
Ed
 1e-07 1 1 0
1  85 0 0 16.2693007936866
2  169 76 0 0 16.2693007936866
2  170 74 0 0 16.2693007936866
4 CN 74 0 76 0
0

0101000
+195 0 -200 0 *
Wi

0101100
+194 0 -199 0 -193 0 *
Fa
0  1e-07 74 0

0101000
+192 0 *
Ed
 1e-07 1 1 0
1  86 0 0 5.94243216200236
2  171 77 0 0 5.94243216200236
2  172 71 0 0 5.94243216200236
4 CN 77 0 71 0
0

0101000
+314 0 -195 0 *
Ve
1e-07
122.650001525879 141 4.875
0 0

0101101
*
Ed
 1e-07 1 1 0
1  87 0 0 2.12132034355964
2  173 77 0 0 2.12132034355964
2  174 76 0 0 2.12132034355964
4 CN 77 0 76 0
0

0101000
+195 0 -189 0 *
Ed
 1e-07 1 1 0
1  88 0 0 4.25
2  175 77 0 0 4.25
2  176 78 0 0 4.25
4 CN 77 0 78 0
0

0101000
+189 0 -314 0 *
Wi

0101100
+190 0 +188 0 +187 0 *
Fa
0  1e-07 77 0

0101000
+186 0 *
Ed
 1e-07 1 1 0
1  89 0 0 14.7000045776367
2  177 76 0 0 14.7000045776367
2  178 78 0 0 14.7000045776367
4 CN 76 0 78 0
0

0101000
+200 0 -189 0 *
Wi

0101100
+193 0 +184 0 -188 0 *
Fa
0  1e-07 76 0

0101000
+183 0 *
Ed
 1e-07 1 1 0
1  90 0 0 25
2  179 71 0 0 25
2  180 79 0 0 25
4 C0 71 0 79 0
0

0101000
+221 0 -195 0 *
Wi

0101100
+181 0 -190 0 -209 0 *
Fa
0  1e-07 71 0

0101000
+180 0 *
Ve
1e-07
122.650001525879 141 6.375
0 0

0101101
*
Ed
 1e-07 1 1 0
1  91 0 0 3.25
2  181 62 0 0 3.25
2  182 80 0 0 3.25
4 C0 62 0 80 0
0

0101000
+178 0 -241 0 *
Ed
 1e-07 1 1 0
1  92 0 0 15.0549870336225
2  183 62 0 0 15.0549870336225
2  184 59 0 0 15.0549870336225
4 CN 62 0 59 0
0

0101000
+257 0 -178 0 *
Wi

0101100
+177 0 -236 0 +176 0 *
Fa
0  1e-07 62 0

0101000
+175 0 *
Ed
 1e-07 1 1 0
1  93 0 0 14.7000045776367
2  185 59 0 0 14.7000045776367
2  186 60 0 0 14.7000045776367
4 C0 59 0 60 0
0

0101000
+249 0 -178 0 *
Wi

0101100
-176 0 -248 0 +173 0 *
Fa
0  1e-07 59 0

0101000
+172 0 *
Ed
 1e-07 1 1 0
1  94 0 0 16.1756803437302
2  187 60 0 0 16.1756803437302
2  188 30 0 0 16.1756803437302
4 CN 60 0 30 0
0

0101000
+333 0 -178 0 *
Wi

0101100
-173 0 -244 0 +170 0 *
Fa
0  1e-07 60 0

0101000
+169 0 *
Ed
 1e-07 1 1 0
1  95 0 0 6.75
2  189 30 0 0 6.75
2  190 28 0 0 6.75
4 C0 30 0 28 0
0

0101000
+338 0 -178 0 *
Wi

0101100
-170 0 +332 0 +167 0 *
Fa
0  1e-07 30 0

0101000
+166 0 *
Ve
1e-07
122.650001525879 119 6.375
0 0

0101101
*
Ed
 1e-07 1 1 0
1  96 0 0 1.34999847412109
2  191 36 0 0 1.34999847412109
2  192 81 0 0 1.34999847412109
4 C0 36 0 81 0
0

0101000
+327 0 -164 0 *
Ed
 1e-07 1 1 0
1  97 0 0 14.7618640578577
2  193 36 0 0 14.7618640578577
2  194 47 0 0 14.7618640578577
4 CN 36 0 47 0
0

0101000
+164 0 -320 0 *
Wi

0101100
+163 0 +162 0 -319 0 *
Fa
0  1e-07 36 0

0101000
+161 0 *
Ed
 1e-07 1 1 0
1  98 0 0 14.7000045776367
2  195 47 0 0 14.7000045776367
2  196 82 0 0 14.7000045776367
4 C0 47 0 82 0
0

0101000
+164 0 -294 0 *
Wi

0101100
-162 0 +159 0 -293 0 *
Fa
0  1e-07 47 0

0101000
+158 0 *
Ed
 1e-07 1 1 0
1  99 0 0 6.75
2  197 82 0 0 6.75
2  198 81 0 0 6.75
4 C0 82 0 81 0
0

0101000
+164 0 -361 0 *
Ed
 1e-07 1 1 0
1  100 0 0 16.1756803437302
2  199 82 0 0 16.1756803437302
2  200 21 0 0 16.1756803437302
4 CN 82 0 21 0
0

0101000
+361 0 -294 0 *
Wi

0101100
-159 0 +156 0 +155 0 *
Fa
0  1e-07 82 0

0101000
+154 0 *
Wi

0101100
-155 0 +354 0 -292 0 *
Fa
0  1e-07 21 0

0101000
+152 0 *
Ed
 1e-07 1 1 0
1  101 0 0 14.7678750869088
2  201 25 0 0 14.7678750869088
2  202 10 0 0 14.7678750869088
4 CN 25 0 10 0
0

0101000
+348 0 -394 0 *
Ed
 1e-07 1 1 0
1  102 0 0 1.4142135623731
2  203 25 0 0 1.4142135623731
2  204 5 0 0 1.4142135623731
4 C0 25 0 5 0
0

0101000
+394 0 -351 0 *
Wi

0101100
-346 0 +150 0 +149 0 *
Fa
0  1e-07 25 0

0101000
+148 0 *
Wi

0101100
-150 0 -260 0 +378 0 *
Fa
0  1e-07 10 0

0101000
+146 0 *
Ed
 1e-07 1 1 0
1  103 0 0 14.7678750869088
2  205 83 0 0 14.7678750869088
2  206 14 0 0 14.7678750869088
4 CN 14 0 83 0
0

0101000
+276 0 -373 0 *
Wi

0101100
-370 0 -144 0 -275 0 *
Fa
0  1e-07 14 0

0101000
+143 0 *
Ve
1e-07
122.650001525879 119.349998474121 14.625
0 0

0101101
*
Ed
 1e-07 1 1 0
1  104 0 0 1.4142135623731
2  207 83 0 0 1.4142135623731
2  208 84 0 0 1.4142135623731
4 C0 83 0 84 0
0

0101000
+373 0 -141 0 *
Ed
 1e-07 1 1 0
1  105 0 0 14.7000045776367
2  209 83 0 0 14.7000045776367
2  210 85 0 0 14.7000045776367
4 C0 83 0 85 0
0

0101000
+141 0 -276 0 *
Wi

0101100
+144 0 +140 0 +139 0 *
Fa
0  1e-07 83 0

0101000
+138 0 *
Ve
1e-07
138.850006103516 117.5 14.625
0 0

0101101
*
Ed
 1e-07 1 1 0
1  106 0 0 2.38169988752789
2  211 86 0 0 2.38169988752789
2  212 51 0 0 2.38169988752789
4 CN 51 0 86 0
0

0101000
+136 0 -276 0 *
Ed
 1e-07 1 1 0
1  107 0 0 3.22063523275961
2  213 51 0 0 3.22063523275961
2  214 87 0 0 3.22063523275961
4 CN 51 0 87 0
0

0101000
+136 0 -274 0 *
Wi

0101100
-273 0 -135 0 +134 0 *
Fa
0  1e-07 51 0

0101000
+133 0 *
Ve
1e-07
121.150001525879 117.5 14.625
0 0

0101101
*
Ed
 1e-07 1 1 0
1  108 0 0 2.38169988752789
2  215 88 0 0 2.38169988752789
2  216 89 0 0 2.38169988752789
4 CN 88 0 89 0
0

0101000
+141 0 -131 0 *
Ve
1e-07
122.650001525879 119 14.625
0 0

0101101
*
Ed
 1e-07 1 1 0
1  109 0 0 2.12132034355964
2  217 88 0 0 2.12132034355964
2  218 90 0 0 2.12132034355964
4 CN 88 0 90 0
0

0101000
+131 0 -129 0 *
Ed
 1e-07 1 1 0
1  110 0 0 0.349998474121094
2  219 88 0 0 0.349998474121094
2  220 91 0 0 0.349998474121094
4 CN 88 0 91 0
0

0101000
+129 0 -141 0 *
Wi

0101100
+130 0 +128 0 +127 0 *
Fa
0  1e-07 88 0

0101000
+126 0 *
Ed
 1e-07 1 1 0
1  111 0 0 3.22063523275961
2  221 89 0 0 3.22063523275961
2  222 2 0 0 3.22063523275961
4 CN 89 0 2 0
0

0101000
+401 0 -131 0 *
Ed
 1e-07 1 1 0
1  112 0 0 1
2  223 89 0 0 1
2  224 84 0 0 1
4 C0 89 0 84 0
0

0101000
+141 0 -401 0 *
Wi

0101100
+124 0 -130 0 +123 0 *
Fa
0  1e-07 89 0

0101000
+122 0 *
Ve
1e-07
137.350006103516 119 14.625
0 0

0101101
*
Ed
 1e-07 1 1 0
1  113 0 0 14.7000045776367
2  225 90 0 0 14.7000045776367
2  226 91 0 0 14.7000045776367
4 CN 90 0 91 0
0

0101000
+120 0 -129 0 *
Ed
 1e-07 1 1 0
1  114 0 0 16.2693007936866
2  227 92 0 0 16.2693007936866
2  228 90 0 0 16.2693007936866
4 CN 90 0 92 0
0

0101000
+120 0 -131 0 *
Wi

0101100
+119 0 -128 0 -118 0 *
Fa
0  1e-07 90 0

0101000
+117 0 *
Ed
 1e-07 1 1 0
1  115 0 0 17.7000045776367
2  229 92 0 0 17.7000045776367
2  230 93 0 0 17.7000045776367
4 C0 92 0 93 0
0

0101000
+131 0 -136 0 *
Ed
 1e-07 1 1 0
1  116 0 0 2.12132034355964
2  231 92 0 0 2.12132034355964
2  232 86 0 0 2.12132034355964
4 CN 92 0 86 0
0

0101000
+136 0 -120 0 *
Wi

0101100
+118 0 +115 0 +114 0 *
Fa
0  1e-07 92 0

0101000
+113 0 *
Ed
 1e-07 1 1 0
1  117 0 0 0.349998474121094
2  233 86 0 0 0.349998474121094
2  234 85 0 0 0.349998474121094
4 CN 86 0 85 0
0

0101000
+276 0 -120 0 *
Wi

0101100
+111 0 -114 0 +135 0 *
Fa
0  1e-07 86 0

0101000
+110 0 *
Ed
 1e-07 1 1 0
1  118 0 0 25
2  235 2 0 0 25
2  236 94 0 0 25
4 C0 2 0 94 0
0

0101000
+402 0 -131 0 *
Wi

0101100
+108 0 -124 0 -400 0 *
Fa
0  1e-07 2 0

0101000
+107 0 *
Ed
 1e-07 1 1 0
1  119 0 0 16.2693007936866
2  237 8 0 0 16.2693007936866
2  238 95 0 0 16.2693007936866
4 CN 8 0 95 0
0

0101000
+384 0 -402 0 *
Wi

0101100
+105 0 -387 0 -382 0 *
Fa
0  1e-07 8 0

0101000
+104 0 *
Ve
1e-07
138.850006103516 142.5 14.625
0 0

0101101
*
Ed
 1e-07 1 1 0
1  120 0 0 2.12132034355964
2  239 11 0 0 2.12132034355964
2  240 95 0 0 2.12132034355964
4 CN 11 0 95 0
0

0101000
+102 0 -384 0 *
Ed
 1e-07 1 1 0
1  121 0 0 2.38170581370686
2  241 11 0 0 2.38170581370686
2  242 55 0 0 2.38170581370686
4 CN 11 0 55 0
0

0101000
+379 0 -102 0 *
Wi

0101100
+101 0 -377 0 +100 0 *
Fa
0  1e-07 11 0

0101000
+99 0 *
Ed
 1e-07 1 1 0
1  122 0 0 3.22064198415103
2  243 55 0 0 3.22064198415103
2  244 53 0 0 3.22064198415103
4 CN 55 0 53 0
0

0101000
+266 0 -102 0 *
Wi

0101100
-100 0 -261 0 +97 0 *
Fa
0  1e-07 55 0

0101000
+96 0 *
Ed
 1e-07 1 1 0
1  123 0 0 22.2007334923069
2  245 53 0 0 22.2007334923069
2  246 87 0 0 22.2007334923069
4 CN 53 0 87 0
0

0101000
+274 0 -102 0 *
Wi

0101100
-97 0 -265 0 +94 0 *
Fa
0  1e-07 53 0

0101000
+93 0 *
Ed
 1e-07 1 1 0
1  124 0 0 25
2  247 87 0 0 25
2  248 96 0 0 25
4 C0 87 0 96 0
0

0101000
+136 0 -102 0 *
Wi

0101100
-94 0 -134 0 +91 0 *
Fa
0  1e-07 87 0

0101000
+90 0 *
Ed
 1e-07 1 1 0
1  125 0 0 17.7000045776367
2  249 95 0 0 17.7000045776367
2  250 97 0 0 17.7000045776367
4 C0 95 0 97 0
0

0101000
+102 0 -402 0 *
Wi

0101100
+88 0 -105 0 -101 0 *
Fa
0  1e-07 95 0

0101000
+87 0 *
Ed
 1e-07 1 1 0
1  126 0 0 14.7041706163397
2  251 91 0 0 14.7041706163397
2  252 85 0 0 14.7041706163397
4 CN 91 0 85 0
0

0101000
+120 0 -141 0 *
Wi

0101100
-127 0 -119 0 +85 0 *
Fa
0  1e-07 91 0

0101000
+84 0 *
Wi

0101100
-85 0 -111 0 -139 0 *
Fa
0  1e-07 85 0

0101000
+82 0 *
Ed
 1e-07 1 1 0
1  127 0 0 1
2  253 5 0 0 1
2  254 98 0 0 1
4 CN 5 0 98 0
0

0101000
+399 0 -351 0 *
Wi

0101100
-149 0 -393 0 +80 0 *
Fa
0  1e-07 5 0

0101000
+79 0 *
Ed
 1e-07 1 1 0
1  128 0 0 6.88367754035076
2  255 28 0 0 6.88367754035076
2  256 80 0 0 6.88367754035076
4 CN 28 0 80 0
0

0101000
+350 0 -178 0 *
Wi

0101100
-167 0 -337 0 +77 0 *
Fa
0  1e-07 28 0

0101000
+76 0 *
Ed
 1e-07 1 1 0
1  129 0 0 7.01230894974529
2  257 80 0 0 7.01230894974529
2  258 61 0 0 7.01230894974529
4 CN 80 0 61 0
0

0101000
+350 0 -241 0 *
Wi

0101100
-177 0 -77 0 +74 0 *
Fa
0  1e-07 80 0

0101000
+73 0 *
Ed
 1e-07 1 1 0
1  130 0 0 8.27480903705014
2  259 61 0 0 8.27480903705014
2  260 99 0 0 8.27480903705014
4 CN 61 0 99 0
0

0101000
+350 0 -315 0 *
Wi

0101100
-239 0 -74 0 +71 0 *
Fa
0  1e-07 61 0

0101000
+70 0 *
Ed
 1e-07 1 1 0
1  131 0 0 19.3258848000096
2  261 3 0 0 19.3258848000096
2  262 98 0 0 19.3258848000096
4 CN 3 0 98 0
0

0101000
+373 0 -399 0 *
Ed
 1e-07 1 1 0
1  132 0 0 1
2  263 3 0 0 1
2  264 84 0 0 1
4 CN 3 0 84 0
0

0101000
+401 0 -373 0 *
Wi

0101100
+68 0 -398 0 +67 0 *
Fa
0  1e-07 3 0

0101000
+66 0 *
Wi

0101100
-67 0 -123 0 -140 0 *
Fa
0  1e-07 84 0

0101000
+64 0 *
Ed
 1e-07 1 1 0
1  133 0 0 19.2999954223633
2  265 98 0 0 19.2999954223633
2  266 13 0 0 19.2999954223633
4 CN 98 0 13 0
0

0101000
+373 0 -351 0 *
Wi

0101100
+62 0 -80 0 -68 0 *
Fa
0  1e-07 98 0

0101000
+61 0 *
Ed
 1e-07 1 1 0
1  134 0 0 19.2999954223633
2  267 23 0 0 19.2999954223633
2  268 99 0 0 19.2999954223633
4 CN 23 0 99 0
0

0101000
+374 0 -350 0 *
Ed
 1e-07 1 1 0
1  135 0 0 19.3064710214799
2  269 23 0 0 19.3064710214799
2  270 13 0 0 19.3064710214799
4 CN 23 0 13 0
0

0101000
+351 0 -374 0 *
Wi

0101100
+59 0 -349 0 +58 0 *
Fa
0  1e-07 23 0

0101000
+57 0 *
Ed
 1e-07 1 1 0
1  136 0 0 18.1389787487838
2  271 99 0 0 18.1389787487838
2  272 100 0 0 18.1389787487838
4 CN 99 0 100 0
0

0101000
+374 0 -315 0 *
Wi

0101100
+55 0 -71 0 -59 0 *
Fa
0  1e-07 99 0

0101000
+54 0 *
Wi

0101100
-58 0 -62 0 -372 0 *
Fa
0  1e-07 13 0

0101000
+52 0 *
Ed
 1e-07 1 1 0
1  137 0 0 6.75
2  273 18 0 0 6.75
2  274 100 0 0 6.75
4 CN 18 0 100 0
0

0101000
+327 0 -374 0 *
Ed
 1e-07 1 1 0
1  138 0 0 6.88367604410095
2  275 18 0 0 6.88367604410095
2  276 81 0 0 6.88367604410095
4 CN 18 0 81 0
0

0101000
+361 0 -327 0 *
Wi

0101100
+50 0 -360 0 +49 0 *
Fa
0  1e-07 18 0

0101000
+48 0 *
Ed
 1e-07 1 1 0
1  139 0 0 16.4304610418829
2  277 100 0 0 16.4304610418829
2  278 33 0 0 16.4304610418829
4 CN 100 0 33 0
0

0101000
+327 0 -315 0 *
Wi

0101100
+46 0 -55 0 -50 0 *
Fa
0  1e-07 100 0

0101000
+45 0 *
Wi

0101100
-163 0 -49 0 -156 0 *
Fa
0  1e-07 81 0

0101000
+43 0 *
Ed
 1e-07 1 1 0
1  140 0 0 16.4076217060496
2  279 39 0 0 16.4076217060496
2  280 33 0 0 16.4076217060496
4 CN 39 0 33 0
0

0101000
+315 0 -328 0 *
Wi

0101100
-208 0 -313 0 +41 0 *
Fa
0  1e-07 39 0

0101000
+40 0 *
Wi

0101100
-41 0 -46 0 -326 0 *
Fa
0  1e-07 33 0

0101000
+38 0 *
Ed
 1e-07 1 1 0
1  141 0 0 15.3020467448816
2  281 78 0 0 15.3020467448816
2  282 40 0 0 15.3020467448816
4 CN 78 0 40 0
0

0101000
+200 0 -314 0 *
Wi

0101100
-187 0 -184 0 +36 0 *
Fa
0  1e-07 78 0

0101000
+35 0 *
Wi

0101100
-36 0 -198 0 -311 0 *
Fa
0  1e-07 40 0

0101000
+33 0 *
Ed
 1e-07 1 1 0
1  142 0 0 26.833980323463
2  283 72 0 0 26.833980323463
2  284 96 0 0 26.833980323463
4 CN 72 0 96 0
0

0101000
+205 0 -136 0 *
Ed
 1e-07 1 1 0
1  143 0 0 9.75
2  285 72 0 0 9.75
2  286 93 0 0 9.75
4 C0 72 0 93 0
0

0101000
+136 0 -233 0 *
Wi

0101100
-204 0 +31 0 +30 0 *
Fa
0  1e-07 72 0

0101000
+29 0 *
Ed
 1e-07 1 1 0
1  144 0 0 9.75
2  287 96 0 0 9.75
2  288 75 0 0 9.75
4 C0 96 0 75 0
0

0101000
+205 0 -102 0 *
Wi

0101100
-31 0 +27 0 -91 0 *
Fa
0  1e-07 96 0

0101000
+26 0 *
Ed
 1e-07 1 1 0
1  145 0 0 20.2077376776412
2  289 75 0 0 20.2077376776412
2  290 97 0 0 20.2077376776412
4 CN 75 0 97 0
0

0101000
+195 0 -102 0 *
Wi

0101100
-194 0 +24 0 -27 0 *
Fa
0  1e-07 75 0

0101000
+23 0 *
Ed
 1e-07 1 1 0
1  146 0 0 9.75
2  291 97 0 0 9.75
2  292 79 0 0 9.75
4 C0 97 0 79 0
0

0101000
+195 0 -402 0 *
Wi

0101100
-24 0 +21 0 -88 0 *
Fa
0  1e-07 97 0

0101000
+20 0 *
Ed
 1e-07 1 1 0
1  147 0 0 26.833980323463
2  293 79 0 0 26.833980323463
2  294 94 0 0 26.833980323463
4 CN 79 0 94 0
0

0101000
+221 0 -402 0 *
Wi

0101100
-181 0 +18 0 -21 0 *
Fa
0  1e-07 79 0

0101000
+17 0 *
Ed
 1e-07 1 1 0
1  148 0 0 9.75
2  295 94 0 0 9.75
2  296 68 0 0 9.75
4 C0 94 0 68 0
0

0101000
+221 0 -131 0 *
Wi

0101100
-18 0 +15 0 -108 0 *
Fa
0  1e-07 94 0

0101000
+14 0 *
Ed
 1e-07 1 1 0
1  149 0 0 20.2077376776412
2  297 68 0 0 20.2077376776412
2  298 93 0 0 20.2077376776412
4 CN 68 0 93 0
0

0101000
+233 0 -131 0 *
Wi

0101100
-220 0 +12 0 -15 0 *
Fa
0  1e-07 68 0

0101000
+11 0 *
Wi

0101100
-12 0 -30 0 -115 0 *
Fa
0  1e-07 93 0

0101000
+9 0 *
Ed
 1e-07 1 1 0
1  150 0 0 14.7618640578577
2  299 67 0 0 14.7618640578577
2  300 35 0 0 14.7618640578577
4 CN 67 0 35 0
0

0101000
+328 0 -228 0 *
Wi

0101100
-215 0 +7 0 -224 0 *
Fa
0  1e-07 67 0

0101000
+6 0 *
Wi

0101100
-7 0 -323 0 -212 0 *
Fa
0  1e-07 35 0

0101000
+4 0 *
Sh

0101100
+395 0 +390 0 +385 0 +380 0 +375 0 +367 0 +362 0 +357 0 +352 0 +344 0 
+339 0 +334 0 +329 0 +321 0 +316 0 +308 0 +303 0 +299 0 +295 0 +289 0 
+287 0 +283 0 +280 0 +277 0 +270 0 +267 0 +262 0 +258 0 +253 0 +250 0 
+245 0 +242 0 +237 0 +234 0 +229 0 +222 0 +217 0 +213 0 +210 0 +206 0 
+201 0 +196 0 +191 0 +185 0 +182 0 +179 0 +174 0 +171 0 +168 0 +165 0 
+160 0 +157 0 +153 0 +151 0 +147 0 +145 0 +142 0 +137 0 +132 0 +125 0 
+121 0 +116 0 +112 0 +109 0 +106 0 +103 0 +98 0 +95 0 +92 0 +89 0 
+86 0 +83 0 +81 0 +78 0 +75 0 +72 0 +69 0 +65 0 +63 0 +60 0 
+56 0 +53 0 +51 0 +47 0 +44 0 +42 0 +39 0 +37 0 +34 0 +32 0 
+28 0 +25 0 +22 0 +19 0 +16 0 +13 0 +10 0 +8 0 +5 0 +3 0 
*
So

1100000
+2 0 *

+1 1 